<svg width="170" height="378" viewBox="0 0 170 378" fill="none" xmlns="http://www.w3.org/2000/svg">
<path d="M105.48 0.799994H119.16V25.46H105.48V0.799994ZM62.82 20.06H162.9V31.76H62.82V20.06ZM55.62 62.18H167.94V74.06H55.62V62.18ZM79.74 33.38L91.44 31.04C95.4 40.76 98.82 53.36 99.54 61.1L87.3 64.16C86.76 56.24 83.52 43.28 79.74 33.38ZM133.2 30.68L146.52 32.66C142.74 43.28 138.42 55.52 134.64 63.62L123.12 61.64C126.72 53.18 131.04 39.68 133.2 30.68ZM56.52 91.88H167.22V103.58H56.52V91.88ZM97.74 70.82L111.24 73.52C102.06 94.22 89.28 120.5 80.1 137.06L68.4 133.1C77.4 117.08 89.82 90.44 97.74 70.82ZM77.58 130.76L85.5 121.58C112.68 129.32 146.52 143.72 163.98 156.32L155.34 166.58C138.78 154.34 105.12 139.04 77.58 130.76ZM133.2 99.44L146.34 101.42C137.7 141.56 113.04 159.02 57.42 166.4C56.52 162.62 54.18 157.94 52.02 155.06C103.86 149.84 125.46 134.54 133.2 99.44ZM0.36 96.56C14.94 92.96 36.9 86.48 58.14 80.36L59.76 92.42C40.14 98.54 19.44 105.02 3.42 109.88L0.36 96.56ZM3.42 37.16H58.32V49.76H3.42V37.16ZM27.9 0.979992H40.86V150.02C40.86 157.76 39.24 161.54 34.56 163.7C29.88 166.04 22.5 166.4 10.8 166.4C10.26 162.98 8.46 157.04 6.66 153.26C14.76 153.62 22.32 153.62 24.48 153.44C26.82 153.44 27.9 152.72 27.9 150.02V0.979992ZM116.82 211.8H129.42V359.58H116.82V211.8ZM139.14 328.98L149.76 325.38C158.58 340.86 167.04 361.02 169.74 373.62L158.04 377.76C155.52 365.16 147.6 344.46 139.14 328.98ZM81.18 358.32C100.08 356.7 129.42 354 158.04 351.12L158.22 363.36C131.04 366.42 102.78 369.3 82.8 371.46L81.18 358.32ZM97.92 259.86V304.68H149.4V259.86H97.92ZM86.4 248.52H161.64V316.2H86.4V248.52ZM19.98 257.7H72V268.32H19.98V257.7ZM19.98 288.12H72V298.38H19.98V288.12ZM19.98 319.08H72V329.7H19.98V319.08ZM29.16 227.82H58.32V238.62H29.16V227.82ZM40.68 262.38H50.22V323.58H40.68V262.38ZM28.44 211.8L40.68 214.5C34.2 238.44 23.58 261.66 11.16 276.96C9 274.8 3.78 270.66 0.9 269.04C13.5 255.18 22.86 233.76 28.44 211.8ZM14.4 257.7H25.56V305.76C25.56 327.72 23.58 357.96 10.98 377.76C9 375.96 4.14 372.9 1.44 371.82C13.14 352.74 14.4 325.92 14.4 305.76V257.7ZM66.06 257.7H77.4V363.18C77.4 369.66 75.78 373.44 71.46 375.24C66.78 377.4 59.58 377.58 47.16 377.58C46.8 374.52 45 369.3 43.2 366.24C52.38 366.42 60.3 366.42 62.64 366.24C65.16 366.24 66.06 365.52 66.06 363V257.7ZM54.54 227.82H57.06L59.4 227.1L66.96 232.14C62.46 244.2 55.44 258.06 49.14 267.06C47.34 264.72 44.1 261.3 41.58 259.5C46.62 251.94 51.84 239.16 54.54 229.98V227.82Z" fill="#8D3333"/>
</svg>
