<svg width="169" height="378" viewBox="0 0 169 378" fill="none" xmlns="http://www.w3.org/2000/svg">
<path d="M74.6401 0.799994L88.8601 4.93999C73.2001 40.94 47.8201 71.18 19.7401 90.44C17.2201 87.56 11.2801 82.52 7.68006 80.18C36.4801 62.72 60.6001 33.92 74.6401 0.799994ZM50.5201 78.02L60.0601 69.2C77.1601 78.74 98.0401 93.32 108.48 103.94L98.0401 114.02C88.3201 103.4 67.6201 88.1 50.5201 78.02ZM139.44 29.6H142.14L144.66 28.88L154.56 33.2C135.3 108.8 83.6401 149.48 24.4201 167.3C22.8001 163.34 19.0201 157.4 16.3201 154.34C72.1201 139.4 122.52 99.62 139.44 32.3V29.6ZM64.3801 29.6H142.86V42.92H64.3801V29.6ZM83.2801 223.68C67.8001 242.76 38.1001 264.72 8.22006 278.58C6.60006 275.52 3.18006 270.66 0.300061 267.6C30.9001 254.46 61.1401 231.78 75.7201 211.62H89.2201C108.84 234.3 140.16 255 168.24 265.62C165.18 268.86 161.94 273.72 159.6 277.5C132.6 265.44 100.74 244.02 83.2801 223.68ZM40.6201 287.58H126.84V298.02H40.6201V287.58ZM76.4401 243.48H90.3001V267.96H76.4401V243.48ZM12.1801 363.18C32.1601 361.56 62.7601 358.86 92.4601 355.98L92.6401 368.22C64.3801 371.1 34.6801 373.98 13.9801 375.96L12.1801 363.18ZM84.7201 319.8C98.0401 345.18 127.2 360.3 165.54 365.7C162.66 368.58 159.06 373.98 157.26 377.58C117.66 370.56 88.3201 353.1 73.2001 323.4L84.7201 319.8ZM145.56 316.92L155.64 324.84C141.42 334.92 122.88 345.36 108.12 352.38L99.4801 345C114.06 337.98 133.86 325.92 145.56 316.92ZM40.6201 261.48H135.48V325.02H40.6201V314.04H121.98V272.46H40.6201V261.48ZM32.5201 261.48H45.8401V364.8L32.5201 366.24V261.48Z" fill="#8D3333" fill-opacity="0.8"/>
</svg>
