<svg width="60" height="12" viewBox="0 0 60 12" fill="none" xmlns="http://www.w3.org/2000/svg">
<path d="M6 0.161804L7.29953 4.16135L7.31076 4.1959H7.34708H11.5525L8.15024 6.66775L8.12085 6.68911L8.13207 6.72365L9.43161 10.7232L6.02939 8.25134L6 8.22999L5.97061 8.25134L2.56839 10.7232L3.86793 6.72365L3.87915 6.68911L3.84976 6.66775L0.447546 4.1959H4.65292H4.68924L4.70047 4.16135L6 0.161804Z" fill="#FFC700" stroke="black" stroke-width="0.1"/>
<path d="M18 0.161804L19.2995 4.16135L19.3108 4.1959H19.3471H23.5525L20.1502 6.66775L20.1208 6.68911L20.1321 6.72365L21.4316 10.7232L18.0294 8.25134L18 8.22999L17.9706 8.25134L14.5684 10.7232L15.8679 6.72365L15.8792 6.68911L15.8498 6.66775L12.4475 4.1959H16.6529H16.6892L16.7005 4.16135L18 0.161804Z" fill="#FFC700" stroke="black" stroke-width="0.1"/>
<path d="M30 0.161804L31.2995 4.16135L31.3108 4.1959H31.3471H35.5525L32.1502 6.66775L32.1208 6.68911L32.1321 6.72365L33.4316 10.7232L30.0294 8.25134L30 8.22999L29.9706 8.25134L26.5684 10.7232L27.8679 6.72365L27.8792 6.68911L27.8498 6.66775L24.4475 4.1959H28.6529H28.6892L28.7005 4.16135L30 0.161804Z" fill="#FFC700" stroke="black" stroke-width="0.1"/>
<path d="M42 0.161804L43.2995 4.16135L43.3108 4.1959H43.3471H47.5525L44.1502 6.66775L44.1208 6.68911L44.1321 6.72365L45.4316 10.7232L42.0294 8.25134L42 8.22999L41.9706 8.25134L38.5684 10.7232L39.8679 6.72365L39.8792 6.68911L39.8498 6.66775L36.4475 4.1959H40.6529H40.6892L40.7005 4.16135L42 0.161804Z" fill="#FFC700" stroke="black" stroke-width="0.1"/>
<path d="M54 0.161804L55.2995 4.16135L55.3108 4.1959H55.3471H59.5525L56.1502 6.66775L56.1208 6.68911L56.1321 6.72365L57.4316 10.7232L54.0294 8.25134L54 8.22999L53.9706 8.25134L50.5684 10.7232L51.8679 6.72365L51.8792 6.68911L51.8498 6.66775L48.4475 4.1959H52.6529H52.6892L52.7005 4.16135L54 0.161804Z" fill="#FFC700" stroke="black" stroke-width="0.1"/>
</svg>
