<svg width="53" height="244" viewBox="0 0 53 244" fill="none" xmlns="http://www.w3.org/2000/svg">
<path d="M27.05 17.19H47.84V20.985H27.05V17.19ZM27.105 30.5H47.895V34.295H27.105V30.5ZM27.05 43.865H47.895V47.66H27.05V43.865ZM25.015 4.045H49.875V50.905H45.75V8.005H28.975V51.07H25.015V4.045ZM1.805 12.625H22.595V16.585H1.805V12.625ZM10.77 0.799998H14.73V51.345H10.77V0.799998ZM10.55 15.045L13.3 15.98C11.32 24.89 7.085 35.615 2.74 41.17C2.3 40.015 1.255 38.365 0.54 37.43C4.665 32.48 8.845 23.02 10.55 15.045ZM14.345 21.095C15.94 22.635 21.605 29.235 22.925 30.775L20.34 34.185C18.8 31.49 14.18 25.33 12.255 23.075L14.345 21.095ZM19.955 67.275L22.98 66.175C24.52 68.54 26.06 71.785 26.61 73.82L23.42 75.14C22.87 73.05 21.385 69.695 19.955 67.275ZM24.465 79.76L27.82 78.825C28.975 80.86 30.13 83.555 30.57 85.26L26.995 86.415C26.61 84.655 25.565 81.85 24.465 79.76ZM46.52 65.955L50.15 67.165C48.61 70.025 46.905 73.27 45.475 75.415L42.67 74.315C43.935 72.06 45.64 68.43 46.52 65.955ZM41.515 78.55L45.2 79.595C43.99 82.07 42.725 84.71 41.625 86.415L38.435 85.425C39.48 83.555 40.855 80.53 41.515 78.55ZM19.075 75.525H51.635V79.045H19.075V75.525ZM19.46 85.865H50.04V89.055H19.46V85.865ZM20.505 92.795H49.215V95.985H20.505V92.795ZM17.37 99.945H51.58V103.245H17.37V99.945ZM32.22 87.24H36.18V96.095C36.18 102.75 33.925 110.505 18.14 115.565C17.645 114.74 16.49 113.365 15.61 112.54C30.79 108.25 32.22 101.43 32.22 96.04V87.24ZM37.5 101.32C39.865 106.82 45.2 110.725 52.515 112.21C51.69 113.035 50.59 114.465 50.095 115.51C42.285 113.475 36.785 108.91 34.035 102.035L37.5 101.32ZM28.92 64.8H32.33V77.285H28.92V64.8ZM36.895 64.8H40.36V77.285H36.895V64.8ZM0.485 93.345C4.775 92.135 11.21 90.155 17.48 88.12L18.03 91.915C12.31 93.895 6.26 95.875 1.585 97.36L0.485 93.345ZM1.255 75.91H17.975V79.76H1.255V75.91ZM8.185 64.855H12.035V110.615C12.035 112.925 11.485 114.025 10.11 114.685C8.845 115.345 6.7 115.455 3.235 115.455C3.07 114.465 2.575 112.76 2.025 111.605C4.445 111.66 6.535 111.66 7.195 111.605C7.855 111.605 8.185 111.44 8.185 110.615V64.855ZM5.105 133.53H48.115V137.105H5.105V133.53ZM7.305 141.615H45.97V145.08H7.305V141.615ZM1.86 149.92H51.085V153.55H1.86V149.92ZM2.795 159.105H50.205V162.735H2.795V159.105ZM36.84 153.055H41.02V174.23C41.02 176.65 40.47 177.86 38.71 178.52C36.84 179.18 33.815 179.18 29.195 179.18C28.975 178.025 28.315 176.375 27.765 175.165C31.45 175.275 34.695 175.275 35.63 175.22C36.62 175.22 36.84 174.945 36.84 174.175V153.055ZM23.475 128.745L27.985 129.24C25.015 152.065 19.35 167.52 4.94 176.925C4.28 176.045 2.41 174.34 1.31 173.57C15.61 165.265 20.89 150.36 23.475 128.745ZM16.545 167.08L19.955 164.935C22.65 167.41 25.95 170.93 27.545 173.185L23.97 175.605C22.485 173.295 19.24 169.665 16.545 167.08ZM3.84 196.375H45.31V200.335H3.84V196.375ZM4.17 206.11H37.335V209.795H4.17V206.11ZM43.66 196.375H47.785V237.24C47.785 240.1 47.235 241.53 45.31 242.3C43.385 243.015 39.92 243.07 35.025 243.07C34.805 241.805 34.2 239.77 33.54 238.56C37.39 238.67 41.13 238.67 42.285 238.615C43.33 238.56 43.66 238.285 43.66 237.24V196.375ZM7.69 215.735H11.705V237.405H7.69V215.735ZM10.99 215.735H33.54V233.335H10.99V229.705H29.47V219.42H10.99V215.735Z" fill="black" fill-opacity="0.8"/>
</svg>
