<svg width="166" height="85" viewBox="0 0 166 85" fill="none" xmlns="http://www.w3.org/2000/svg">
<path d="M106.188 52.336C105.311 52.336 104.508 52.252 103.78 52.084C103.052 51.9347 102.445 51.7667 101.96 51.58C101.475 51.3933 101.232 51.2907 101.232 51.272L101.008 50.88C101.027 50.7493 101.064 50.4693 101.12 50.04C101.195 49.592 101.269 48.9947 101.344 48.248C101.419 47.5013 101.456 46.792 101.456 46.12L103.808 45.924C103.808 46.9693 103.901 47.772 104.088 48.332C104.275 48.892 104.583 49.284 105.012 49.508C105.46 49.732 106.085 49.844 106.888 49.844C107.765 49.844 108.465 49.648 108.988 49.256C109.529 48.864 109.8 48.3413 109.8 47.688C109.8 47.2587 109.651 46.876 109.352 46.54C109.053 46.204 108.689 45.9147 108.26 45.672C107.831 45.4107 107.205 45.0747 106.384 44.664L105.656 44.328C104.275 43.656 103.192 42.9467 102.408 42.2C101.624 41.4533 101.232 40.4827 101.232 39.288C101.232 38.2053 101.549 37.244 102.184 36.404C102.819 35.5453 103.705 34.8827 104.844 34.416C105.983 33.9307 107.28 33.688 108.736 33.688C109.557 33.688 110.323 33.744 111.032 33.856C111.741 33.968 112.301 34.0893 112.712 34.22C113.141 34.332 113.412 34.4067 113.524 34.444L113.72 34.808C113.664 35.0693 113.552 35.676 113.384 36.628C113.235 37.5613 113.123 38.56 113.048 39.624L110.92 39.792L110.668 39.596C110.668 39.54 110.668 39.428 110.668 39.26C110.687 39.0733 110.696 38.8587 110.696 38.616C110.696 37.7947 110.491 37.216 110.08 36.88C109.669 36.5253 108.979 36.348 108.008 36.348C107.224 36.348 106.58 36.5347 106.076 36.908C105.572 37.2813 105.32 37.7573 105.32 38.336C105.32 38.9707 105.619 39.512 106.216 39.96C106.813 40.3893 107.737 40.8933 108.988 41.472C110.033 41.976 110.892 42.4333 111.564 42.844C112.236 43.2547 112.805 43.7867 113.272 44.44C113.739 45.0747 113.972 45.8213 113.972 46.68C113.972 47.8 113.645 48.7893 112.992 49.648C112.357 50.5067 111.452 51.1693 110.276 51.636C109.1 52.1027 107.737 52.336 106.188 52.336ZM117.193 42.592C117.193 42.1067 117.118 41.7613 116.969 41.556C116.82 41.332 116.577 41.22 116.241 41.22C116.073 41.22 115.924 41.2293 115.793 41.248C115.662 41.2667 115.578 41.2853 115.541 41.304L115.709 39.652C116.698 39.5027 117.716 39.3347 118.761 39.148C119.825 38.9427 120.516 38.8027 120.833 38.728L121.113 39.204C120.908 39.652 120.73 40.6693 120.581 42.256C120.432 43.824 120.357 45.4387 120.357 47.1C120.357 47.8653 120.497 48.4347 120.777 48.808C121.057 49.1813 121.496 49.368 122.093 49.368C122.448 49.368 122.802 49.284 123.157 49.116C123.512 48.9293 123.95 48.668 124.473 48.332V42.62C124.473 42.0787 124.389 41.724 124.221 41.556C124.072 41.3693 123.754 41.2667 123.269 41.248L122.793 41.276L123.017 39.652C124.025 39.5027 125.07 39.3347 126.153 39.148C127.236 38.9613 127.936 38.84 128.253 38.784L128.533 39.26C128.328 39.6893 128.15 40.7813 128.001 42.536C127.852 44.272 127.777 46.1853 127.777 48.276C127.777 48.6307 127.861 48.9107 128.029 49.116C128.216 49.3213 128.458 49.424 128.757 49.424C128.962 49.424 129.158 49.3867 129.345 49.312C129.55 49.2373 129.709 49.1627 129.821 49.088C129.952 49.0133 130.036 48.9667 130.073 48.948L130.521 49.536C130.446 49.6667 130.25 49.9373 129.933 50.348C129.634 50.74 129.27 51.1507 128.841 51.58C128.412 51.9907 127.992 52.2427 127.581 52.336C125.882 52.336 124.93 51.6173 124.725 50.18L124.501 50.068C123.792 50.74 123.148 51.2813 122.569 51.692C121.99 52.1027 121.598 52.308 121.393 52.308C119.956 52.308 118.864 52.0093 118.117 51.412C117.37 50.796 116.997 49.9187 116.997 48.78L117.193 42.592ZM135.166 52.336C134.494 52.336 133.878 52.28 133.318 52.168C132.776 52.056 132.338 51.944 132.002 51.832C131.684 51.7013 131.488 51.6173 131.414 51.58L131.246 51.272C131.32 50.7867 131.386 50.208 131.442 49.536C131.516 48.864 131.572 48.22 131.61 47.604L133.206 47.436C133.243 49.3213 134.064 50.264 135.67 50.264C136.192 50.264 136.631 50.152 136.986 49.928C137.34 49.6853 137.518 49.3867 137.518 49.032C137.518 48.6587 137.331 48.3227 136.958 48.024C136.603 47.7253 135.866 47.3147 134.746 46.792C133.626 46.2693 132.804 45.7187 132.282 45.14C131.778 44.5427 131.526 43.8427 131.526 43.04C131.526 42.2 131.768 41.4533 132.254 40.8C132.758 40.1467 133.448 39.6427 134.326 39.288C135.222 38.9147 136.23 38.728 137.35 38.728C137.891 38.728 138.395 38.7653 138.862 38.84C139.328 38.9147 139.692 38.9987 139.954 39.092C140.234 39.1667 140.411 39.2133 140.486 39.232L140.654 39.54C140.616 39.7453 140.532 40.212 140.402 40.94C140.29 41.6493 140.196 42.396 140.122 43.18L138.526 43.264L138.554 42.788C138.535 42.1347 138.367 41.6587 138.05 41.36C137.751 41.0427 137.275 40.884 136.622 40.884C136.136 40.884 135.726 40.996 135.39 41.22C135.072 41.444 134.914 41.7333 134.914 42.088C134.914 42.4427 135.063 42.7693 135.362 43.068C135.66 43.3667 136.146 43.6747 136.818 43.992C137.919 44.5147 138.759 44.9813 139.338 45.392C139.935 45.8027 140.346 46.2227 140.57 46.652C140.812 47.0627 140.934 47.5573 140.934 48.136C140.934 48.9013 140.672 49.6107 140.15 50.264C139.646 50.8987 138.955 51.4027 138.078 51.776C137.2 52.1493 136.23 52.336 135.166 52.336ZM142.563 50.348C143.067 50.292 143.412 50.1613 143.599 49.956C143.804 49.732 143.907 49.3587 143.907 48.836V35.284C143.907 34.7053 143.823 34.304 143.655 34.08C143.487 33.856 143.169 33.744 142.703 33.744H142.059L141.947 33.604L142.115 32.12C143.179 31.9893 144.317 31.8213 145.531 31.616C146.744 31.4107 147.528 31.28 147.883 31.224L148.079 31.756C147.892 31.98 147.733 32.9227 147.603 34.584C147.472 36.2453 147.369 38.4387 147.295 41.164C147.855 40.6413 148.517 40.1093 149.283 39.568C150.067 39.008 150.636 38.728 150.991 38.728C152.353 38.728 153.399 39.0453 154.127 39.68C154.855 40.296 155.219 41.192 155.219 42.368C155.219 42.8347 155.135 43.824 154.967 45.336C154.78 47.2027 154.687 48.4067 154.687 48.948C154.687 49.4147 154.752 49.7507 154.883 49.956C155.032 50.1613 155.265 50.264 155.583 50.264L156.423 50.236L156.479 50.348L156.199 52.084C155.975 52.0653 155.564 52.0467 154.967 52.028C154.388 52.0093 153.791 52 153.175 52C152.727 52 152.148 52.028 151.439 52.084C150.729 52.1587 150.263 52.2053 150.039 52.224L150.179 50.46C150.645 50.348 150.972 50.18 151.159 49.956C151.364 49.7133 151.467 49.3587 151.467 48.892L151.579 44.104C151.597 42.48 151.009 41.668 149.815 41.668C149.087 41.668 148.237 42.0507 147.267 42.816C147.229 44.104 147.211 46.1667 147.211 49.004C147.211 49.4707 147.267 49.7973 147.379 49.984C147.509 50.1707 147.724 50.264 148.023 50.264C148.172 50.264 148.312 50.2547 148.443 50.236C148.592 50.2173 148.685 50.208 148.723 50.208L148.807 50.376L148.527 52.084C148.321 52.0653 147.92 52.0467 147.323 52.028C146.725 52.0093 146.109 52 145.475 52C144.747 52 144.084 52.0093 143.487 52.028C142.908 52.0467 142.525 52.0653 142.339 52.084L142.563 50.348ZM161.293 35.928C160.658 35.928 160.164 35.7507 159.809 35.396C159.473 35.0413 159.305 34.5467 159.305 33.912C159.305 33.24 159.51 32.6987 159.921 32.288C160.332 31.8773 160.873 31.672 161.545 31.672C162.142 31.672 162.618 31.8493 162.973 32.204C163.328 32.5587 163.505 33.0533 163.505 33.688C163.505 34.36 163.3 34.9013 162.889 35.312C162.478 35.7227 161.946 35.928 161.293 35.928ZM158.073 50.516C158.633 50.4227 159.034 50.236 159.277 49.956C159.538 49.676 159.669 49.284 159.669 48.78V42.788C159.669 42.2093 159.576 41.808 159.389 41.584C159.221 41.3413 158.922 41.22 158.493 41.22C158.344 41.22 158.204 41.2293 158.073 41.248C157.942 41.2667 157.858 41.2853 157.821 41.304L157.989 39.652C159.072 39.5213 160.154 39.3533 161.237 39.148C162.338 38.9427 163.048 38.8027 163.365 38.728L163.617 39.204C163.43 39.6147 163.272 40.7253 163.141 42.536C163.029 44.3467 162.973 46.512 162.973 49.032C162.973 49.48 163.038 49.7973 163.169 49.984C163.3 50.1707 163.514 50.264 163.813 50.264C163.981 50.264 164.14 50.2547 164.289 50.236C164.457 50.2173 164.569 50.208 164.625 50.208L164.709 50.32L164.429 52.084C164.205 52.0653 163.794 52.0467 163.197 52.028C162.6 52.0093 161.974 52 161.321 52C160.742 52 160.08 52.0373 159.333 52.112C158.586 52.2053 158.101 52.2707 157.877 52.308L158.073 50.516Z" fill="white"/>
<g clip-path="url(#clip0_105_125)">
<path fill-rule="evenodd" clip-rule="evenodd" d="M84.9322 42.4661C84.9322 65.9195 65.9195 84.9322 42.4661 84.9322C19.0128 84.9322 0 65.9195 0 42.4661C0 19.0128 19.0128 0 42.4661 0C65.9195 0 84.9322 19.0128 84.9322 42.4661ZM44.8989 37.6105V47.2032H61.8109V37.6105H44.8989ZM61.8109 33.7846V24.5246H44.8989V33.7846H61.8109ZM61.8109 51.0293H44.8989V60.6774H61.8109V51.0293ZM61.8109 64.5033V67.7748H65.9695V20.5322H40.9066V67.9412H44.8989V64.5033H61.8109ZM26.5452 29.1823H17.507V33.1747H25.9654C24.068 40.8584 20.1256 49.5172 16.2318 54.1899C16.9526 55.1325 18.0061 56.796 18.4496 57.9604C21.4253 54.1561 24.3498 47.9466 26.5452 41.5393V68.2184H30.5375V42.8506C32.6367 45.5949 35.1357 49.0673 36.1933 50.9184L38.7995 47.4804C37.5605 46.0349 32.5238 40.1669 30.5375 38.1118V33.1747H38.4668V29.1823H30.5375V17.2607H26.5452V29.1823Z" fill="#8D3333"/>
</g>
<defs>
<clipPath id="clip0_105_125">
<rect width="85" height="85" fill="white"/>
</clipPath>
</defs>
</svg>
