<svg width="627" height="627" viewBox="0 0 627 627" fill="none" xmlns="http://www.w3.org/2000/svg">
<path d="M313.25 626.5C486.253 626.5 626.5 486.253 626.5 313.25C626.5 140.247 486.253 0 313.25 0C140.247 0 0 140.247 0 313.25C0 486.253 140.247 626.5 313.25 626.5Z" fill="#8D3333"/>
<path d="M316.88 249.212H471.489V277.434H316.88V249.212ZM317.289 348.194H471.898V376.417H317.289V348.194ZM316.88 447.586H471.898V475.808H316.88V447.586ZM301.746 151.456H486.622V499.94H455.946V180.906H331.195V501.167H301.746V151.456ZM129.14 215.263H283.749V244.713H129.14V215.263ZM195.81 127.324H225.259V503.212H195.81V127.324ZM194.174 233.26L214.625 240.213C199.9 306.474 168.406 386.233 136.093 427.544C132.821 418.955 125.05 406.684 119.733 399.731C150.409 362.919 181.494 292.568 194.174 233.26ZM222.396 278.252C234.258 289.705 276.387 338.787 286.203 350.239L266.979 375.599C255.527 355.557 221.169 309.747 206.854 292.977L222.396 278.252Z" fill="black"/>
</svg>
