<svg width="61" height="61" viewBox="0 0 61 61" fill="none" xmlns="http://www.w3.org/2000/svg">
<g clip-path="url(#clip0_105_126)">
<path fill-rule="evenodd" clip-rule="evenodd" d="M60.9514 30.4757C60.9514 47.3069 47.3069 60.9514 30.4757 60.9514C13.6444 60.9514 0 47.3069 0 30.4757C0 13.6444 13.6444 0 30.4757 0C47.3069 0 60.9514 13.6444 60.9514 30.4757ZM32.2215 26.9912V33.8753H44.3584V26.9912H32.2215ZM44.3584 24.2455V17.6001H32.2215V24.2455H44.3584ZM44.3584 36.6211H32.2215V43.5451H44.3584V36.6211ZM44.3584 46.2907V48.6385H47.3428V14.735H29.3565V48.7579H32.2215V46.2907H44.3584ZM19.0501 20.9427H12.5639V23.8078H18.6339C17.2723 29.322 14.443 35.536 11.6487 38.8893C12.1659 39.5658 12.922 40.7596 13.2403 41.5952C15.3758 38.865 17.4745 34.4088 19.0501 29.8107V48.9568H21.9151V30.7517C23.4216 32.7212 25.215 35.2131 25.974 36.5415L27.8443 34.0743C26.9551 33.0369 23.3406 28.8258 21.9151 27.3509V23.8078H27.6056V20.9427H21.9151V12.3872H19.0501V20.9427Z" fill="#1F1F1F"/>
</g>
<defs>
<clipPath id="clip0_105_126">
<rect width="61" height="61" fill="white"/>
</clipPath>
</defs>
</svg>
