<svg width="423" height="240" viewBox="0 0 423 240" fill="none" xmlns="http://www.w3.org/2000/svg">
<path fill-rule="evenodd" clip-rule="evenodd" d="M0 105.209L60.5305 165.982L60.7981 165.933L73.7941 178.981L163.058 162.359L150.062 149.311L150.073 149.309L89.5423 88.5354L0 105.209ZM134.211 239.96L73.5422 179.047L163.084 162.374L223.754 223.287L134.211 239.96Z" fill="#3F3F3F"/>
<path fill-rule="evenodd" clip-rule="evenodd" d="M149.726 149.301L89.201 88.5327L208.991 102.229L269.521 163.002L269.519 163.002L282.515 176.05L240.215 171.214L300.884 232.127L266.071 228.146L205.418 167.25L205.401 167.233L162.726 162.354L149.726 149.301L149.726 149.301ZM205.418 167.25L162.743 162.371L223.412 223.284L266.087 228.163L205.418 167.25ZM240.248 171.232L300.916 232.145L343.216 236.982L282.548 176.069L240.248 171.232Z" fill="#3F3F3F"/>
<path fill-rule="evenodd" clip-rule="evenodd" d="M349.319 138.211L362.315 151.259L280.878 176.071L267.877 163.018L267.877 163.018L207.352 102.249L288.789 77.4376L349.314 138.206L349.319 138.211ZM280.894 176.088L341.564 237.001L423 212.189L362.331 151.276L280.894 176.088Z" fill="#3F3F3F"/>
<path d="M89.0939 88.2898L224.408 222.467" stroke="#1F1F1F" stroke-linecap="round"/>
<path d="M206.952 102.339L342.266 236.516" stroke="#1F1F1F" stroke-linecap="round"/>
<path fill-rule="evenodd" clip-rule="evenodd" d="M256.155 117.065C269.894 92.8242 284.842 66.4503 284.842 51.1759C284.842 22.9116 261.93 0 233.664 0C205.398 0 182.486 22.9119 182.486 51.1759C182.486 66.4535 197.439 92.838 211.18 117.084C222.86 137.693 233.664 156.757 233.664 166.14C233.664 156.748 244.473 137.678 256.155 117.065ZM251.265 50.1246C251.265 59.8431 243.386 67.7214 233.667 67.7214C223.948 67.7214 216.07 59.8431 216.07 50.1246C216.07 40.4061 223.948 32.5278 233.667 32.5278C243.386 32.5278 251.265 40.4061 251.265 50.1246Z" fill="#8D3333" fill-opacity="0.75"/>
</svg>
