<svg width="302" height="406" viewBox="0 0 302 406" fill="none" xmlns="http://www.w3.org/2000/svg">
<g filter="url(#filter0_d_122_16)">
<rect x="11" y="45" width="280" height="350" rx="5" fill="#2F2F2F"/>
</g>
<path d="M111.449 16.8379V17.8486C111.449 19.4697 111.229 20.9248 110.79 22.2139C110.351 23.5029 109.73 24.6016 108.93 25.5098C108.129 26.4082 107.172 27.0967 106.059 27.5752C104.955 28.0537 103.729 28.293 102.382 28.293C101.044 28.293 99.8184 28.0537 98.7051 27.5752C97.6016 27.0967 96.6445 26.4082 95.834 25.5098C95.0234 24.6016 94.3936 23.5029 93.9443 22.2139C93.5049 20.9248 93.2852 19.4697 93.2852 17.8486V16.8379C93.2852 15.207 93.5049 13.752 93.9443 12.4727C94.3838 11.1836 95.0039 10.085 95.8047 9.17676C96.6152 8.26855 97.5723 7.5752 98.6758 7.09668C99.7891 6.61816 101.015 6.37891 102.353 6.37891C103.7 6.37891 104.926 6.61816 106.029 7.09668C107.143 7.5752 108.1 8.26855 108.9 9.17676C109.711 10.085 110.336 11.1836 110.775 12.4727C111.225 13.752 111.449 15.207 111.449 16.8379ZM107.011 17.8486V16.8086C107.011 15.6758 106.908 14.6797 106.703 13.8203C106.498 12.9609 106.195 12.2383 105.795 11.6523C105.395 11.0664 104.906 10.627 104.33 10.334C103.754 10.0312 103.095 9.87988 102.353 9.87988C101.61 9.87988 100.951 10.0312 100.375 10.334C99.8086 10.627 99.3252 11.0664 98.9248 11.6523C98.5342 12.2383 98.2363 12.9609 98.0312 13.8203C97.8262 14.6797 97.7236 15.6758 97.7236 16.8086V17.8486C97.7236 18.9717 97.8262 19.9678 98.0312 20.8369C98.2363 21.6963 98.5391 22.4238 98.9395 23.0195C99.3398 23.6055 99.8281 24.0498 100.404 24.3525C100.98 24.6553 101.64 24.8066 102.382 24.8066C103.124 24.8066 103.783 24.6553 104.359 24.3525C104.936 24.0498 105.419 23.6055 105.81 23.0195C106.2 22.4238 106.498 21.6963 106.703 20.8369C106.908 19.9678 107.011 18.9717 107.011 17.8486ZM118.568 15.6074V28H114.35V12.1504H118.319L118.568 15.6074ZM123.344 12.0479L123.271 15.959C123.065 15.9297 122.816 15.9053 122.523 15.8857C122.24 15.8564 121.981 15.8418 121.747 15.8418C121.151 15.8418 120.634 15.9199 120.194 16.0762C119.765 16.2227 119.403 16.4424 119.11 16.7354C118.827 17.0283 118.612 17.3848 118.466 17.8047C118.329 18.2246 118.251 18.7031 118.231 19.2402L117.382 18.9766C117.382 17.9512 117.484 17.0088 117.689 16.1494C117.895 15.2803 118.192 14.5234 118.583 13.8789C118.983 13.2344 119.472 12.7363 120.048 12.3848C120.624 12.0332 121.283 11.8574 122.025 11.8574C122.26 11.8574 122.499 11.877 122.743 11.916C122.987 11.9453 123.188 11.9893 123.344 12.0479ZM134.403 24.543V5.5H138.651V28H134.828L134.403 24.543ZM124.384 20.2656V19.958C124.384 18.7471 124.521 17.6484 124.794 16.6621C125.067 15.666 125.468 14.8115 125.995 14.0986C126.522 13.3857 127.172 12.834 127.943 12.4434C128.715 12.0527 129.594 11.8574 130.58 11.8574C131.508 11.8574 132.318 12.0527 133.012 12.4434C133.715 12.834 134.311 13.3906 134.799 14.1133C135.297 14.8262 135.697 15.6709 136 16.6475C136.303 17.6143 136.522 18.6738 136.659 19.8262V20.5C136.522 21.6035 136.303 22.6289 136 23.5762C135.697 24.5234 135.297 25.3535 134.799 26.0664C134.311 26.7695 133.715 27.3164 133.012 27.707C132.309 28.0977 131.488 28.293 130.551 28.293C129.564 28.293 128.686 28.0928 127.914 27.6924C127.152 27.292 126.508 26.7305 125.98 26.0078C125.463 25.2852 125.067 24.4355 124.794 23.459C124.521 22.4824 124.384 21.418 124.384 20.2656ZM128.603 19.958V20.2656C128.603 20.9199 128.651 21.5303 128.749 22.0967C128.856 22.6631 129.027 23.166 129.262 23.6055C129.506 24.0352 129.818 24.3721 130.199 24.6162C130.59 24.8506 131.063 24.9678 131.62 24.9678C132.343 24.9678 132.938 24.8066 133.407 24.4844C133.876 24.1523 134.232 23.6982 134.477 23.1221C134.73 22.5459 134.877 21.8818 134.916 21.1299V19.2109C134.887 18.5957 134.799 18.0439 134.652 17.5557C134.516 17.0576 134.311 16.6328 134.037 16.2812C133.773 15.9297 133.441 15.6562 133.041 15.4609C132.65 15.2656 132.187 15.168 131.649 15.168C131.103 15.168 130.634 15.2949 130.243 15.5488C129.853 15.793 129.535 16.1299 129.291 16.5596C129.057 16.9893 128.881 17.4971 128.764 18.083C128.656 18.6592 128.603 19.2842 128.603 19.958ZM149.242 28.293C148.012 28.293 146.908 28.0977 145.932 27.707C144.955 27.3066 144.125 26.7549 143.441 26.0518C142.768 25.3486 142.25 24.5332 141.889 23.6055C141.527 22.668 141.347 21.6719 141.347 20.6172V20.0312C141.347 18.8301 141.518 17.7314 141.859 16.7354C142.201 15.7393 142.689 14.875 143.324 14.1426C143.969 13.4102 144.75 12.8486 145.668 12.458C146.586 12.0576 147.621 11.8574 148.773 11.8574C149.896 11.8574 150.893 12.043 151.762 12.4141C152.631 12.7852 153.358 13.3125 153.944 13.9961C154.54 14.6797 154.989 15.5 155.292 16.457C155.595 17.4043 155.746 18.459 155.746 19.6211V21.3789H143.148V18.5664H151.601V18.2441C151.601 17.6582 151.493 17.1357 151.278 16.6768C151.073 16.208 150.761 15.8369 150.341 15.5635C149.921 15.29 149.384 15.1533 148.729 15.1533C148.173 15.1533 147.694 15.2754 147.294 15.5195C146.894 15.7637 146.566 16.1055 146.312 16.5449C146.068 16.9844 145.883 17.502 145.756 18.0977C145.639 18.6836 145.58 19.3281 145.58 20.0312V20.6172C145.58 21.252 145.668 21.8379 145.844 22.375C146.029 22.9121 146.288 23.376 146.62 23.7666C146.962 24.1572 147.372 24.46 147.851 24.6748C148.339 24.8896 148.891 24.9971 149.506 24.9971C150.268 24.9971 150.976 24.8506 151.63 24.5576C152.294 24.2549 152.865 23.8008 153.344 23.1953L155.395 25.4219C155.062 25.9004 154.608 26.3594 154.032 26.7988C153.466 27.2383 152.782 27.5996 151.981 27.8828C151.181 28.1562 150.268 28.293 149.242 28.293ZM162.367 15.6074V28H158.148V12.1504H162.118L162.367 15.6074ZM167.143 12.0479L167.069 15.959C166.864 15.9297 166.615 15.9053 166.322 15.8857C166.039 15.8564 165.78 15.8418 165.546 15.8418C164.95 15.8418 164.433 15.9199 163.993 16.0762C163.563 16.2227 163.202 16.4424 162.909 16.7354C162.626 17.0283 162.411 17.3848 162.265 17.8047C162.128 18.2246 162.05 18.7031 162.03 19.2402L161.181 18.9766C161.181 17.9512 161.283 17.0088 161.488 16.1494C161.693 15.2803 161.991 14.5234 162.382 13.8789C162.782 13.2344 163.271 12.7363 163.847 12.3848C164.423 12.0332 165.082 11.8574 165.824 11.8574C166.059 11.8574 166.298 11.877 166.542 11.916C166.786 11.9453 166.986 11.9893 167.143 12.0479ZM178.114 28L181.835 6.67188H184.486L180.766 28H178.114ZM183.607 28L187.343 6.67188H189.994L186.259 28H183.607ZM192.177 15.2412H176.928V12.7656H192.177V15.2412ZM191.063 21.9941H175.829V19.5332H191.063V21.9941ZM204.496 6.62793V28H200.277V11.4912L195.209 13.1025V9.77734L204.042 6.62793H204.496Z" fill="white"/>
<path d="M44.3203 81H32.2148V79.1602H44.3203V81ZM40.043 73.6992H32.168V71.8594H40.043V73.6992ZM36.1992 68.8242L36.457 76.2891C36.4648 77.0234 36.3594 77.7109 36.1406 78.3516C35.9219 78.9844 35.5938 79.4609 35.1562 79.7812L33.1172 79.1602C33.3906 79.0898 33.6055 78.8945 33.7617 78.5742C33.9258 78.2461 34.0391 77.8711 34.1016 77.4492C34.1719 77.0273 34.207 76.6445 34.207 76.3008L33.9492 68.8242C33.9492 67.7461 34.1758 66.8281 34.6289 66.0703C35.082 65.3047 35.6992 64.7188 36.4805 64.3125C37.2695 63.9062 38.1602 63.7031 39.1523 63.7031C40.1758 63.7031 41.0469 63.8945 41.7656 64.2773C42.4844 64.6602 43.0352 65.1953 43.418 65.8828C43.8008 66.5625 43.9922 67.3555 43.9922 68.2617H41.7422C41.7422 67.6055 41.6094 67.0781 41.3438 66.6797C41.0859 66.2812 40.7461 65.9922 40.3242 65.8125C39.9023 65.6328 39.4492 65.543 38.9648 65.543C38.4492 65.543 37.9805 65.6719 37.5586 65.9297C37.1445 66.1797 36.8125 66.5508 36.5625 67.043C36.3203 67.5273 36.1992 68.1211 36.1992 68.8242ZM57.1992 71.1094V73.7109C57.1992 75.1094 57.0742 76.2891 56.8242 77.25C56.5742 78.2109 56.2148 78.9844 55.7461 79.5703C55.2773 80.1562 54.7109 80.582 54.0469 80.8477C53.3906 81.1055 52.6484 81.2344 51.8203 81.2344C51.1641 81.2344 50.5586 81.1523 50.0039 80.9883C49.4492 80.8242 48.9492 80.5625 48.5039 80.2031C48.0664 79.8359 47.6914 79.3594 47.3789 78.7734C47.0664 78.1875 46.8281 77.4766 46.6641 76.6406C46.5 75.8047 46.418 74.8281 46.418 73.7109V71.1094C46.418 69.7109 46.543 68.5391 46.793 67.5938C47.0508 66.6484 47.4141 65.8906 47.8828 65.3203C48.3516 64.7422 48.9141 64.3281 49.5703 64.0781C50.2344 63.8281 50.9766 63.7031 51.7969 63.7031C52.4609 63.7031 53.0703 63.7852 53.625 63.9492C54.1875 64.1055 54.6875 64.3594 55.125 64.7109C55.5625 65.0547 55.9336 65.5156 56.2383 66.0938C56.5508 66.6641 56.7891 67.3633 56.9531 68.1914C57.1172 69.0195 57.1992 69.9922 57.1992 71.1094ZM55.0195 74.0625V70.7461C55.0195 69.9805 54.9727 69.3086 54.8789 68.7305C54.793 68.1445 54.6641 67.6445 54.4922 67.2305C54.3203 66.8164 54.1016 66.4805 53.8359 66.2227C53.5781 65.9648 53.2773 65.7773 52.9336 65.6602C52.5977 65.5352 52.2188 65.4727 51.7969 65.4727C51.2812 65.4727 50.8242 65.5703 50.4258 65.7656C50.0273 65.9531 49.6914 66.2539 49.418 66.668C49.1523 67.082 48.9492 67.625 48.8086 68.2969C48.668 68.9688 48.5977 69.7852 48.5977 70.7461V74.0625C48.5977 74.8281 48.6406 75.5039 48.7266 76.0898C48.8203 76.6758 48.957 77.1836 49.1367 77.6133C49.3164 78.0352 49.5352 78.3828 49.793 78.6562C50.0508 78.9297 50.3477 79.1328 50.6836 79.2656C51.0273 79.3906 51.4062 79.4531 51.8203 79.4531C52.3516 79.4531 52.8164 79.3516 53.2148 79.1484C53.6133 78.9453 53.9453 78.6289 54.2109 78.1992C54.4844 77.7617 54.6875 77.2031 54.8203 76.5234C54.9531 75.8359 55.0195 75.0156 55.0195 74.0625ZM60.2578 79.8516C60.2578 79.4844 60.3711 79.1758 60.5977 78.9258C60.832 78.668 61.168 78.5391 61.6055 78.5391C62.043 78.5391 62.375 78.668 62.6016 78.9258C62.8359 79.1758 62.9531 79.4844 62.9531 79.8516C62.9531 80.2109 62.8359 80.5156 62.6016 80.7656C62.375 81.0156 62.043 81.1406 61.6055 81.1406C61.168 81.1406 60.832 81.0156 60.5977 80.7656C60.3711 80.5156 60.2578 80.2109 60.2578 79.8516ZM77.0273 71.1094V73.7109C77.0273 75.1094 76.9023 76.2891 76.6523 77.25C76.4023 78.2109 76.043 78.9844 75.5742 79.5703C75.1055 80.1562 74.5391 80.582 73.875 80.8477C73.2188 81.1055 72.4766 81.2344 71.6484 81.2344C70.9922 81.2344 70.3867 81.1523 69.832 80.9883C69.2773 80.8242 68.7773 80.5625 68.332 80.2031C67.8945 79.8359 67.5195 79.3594 67.207 78.7734C66.8945 78.1875 66.6562 77.4766 66.4922 76.6406C66.3281 75.8047 66.2461 74.8281 66.2461 73.7109V71.1094C66.2461 69.7109 66.3711 68.5391 66.6211 67.5938C66.8789 66.6484 67.2422 65.8906 67.7109 65.3203C68.1797 64.7422 68.7422 64.3281 69.3984 64.0781C70.0625 63.8281 70.8047 63.7031 71.625 63.7031C72.2891 63.7031 72.8984 63.7852 73.4531 63.9492C74.0156 64.1055 74.5156 64.3594 74.9531 64.7109C75.3906 65.0547 75.7617 65.5156 76.0664 66.0938C76.3789 66.6641 76.6172 67.3633 76.7812 68.1914C76.9453 69.0195 77.0273 69.9922 77.0273 71.1094ZM74.8477 74.0625V70.7461C74.8477 69.9805 74.8008 69.3086 74.707 68.7305C74.6211 68.1445 74.4922 67.6445 74.3203 67.2305C74.1484 66.8164 73.9297 66.4805 73.6641 66.2227C73.4062 65.9648 73.1055 65.7773 72.7617 65.6602C72.4258 65.5352 72.0469 65.4727 71.625 65.4727C71.1094 65.4727 70.6523 65.5703 70.2539 65.7656C69.8555 65.9531 69.5195 66.2539 69.2461 66.668C68.9805 67.082 68.7773 67.625 68.6367 68.2969C68.4961 68.9688 68.4258 69.7852 68.4258 70.7461V74.0625C68.4258 74.8281 68.4688 75.5039 68.5547 76.0898C68.6484 76.6758 68.7852 77.1836 68.9648 77.6133C69.1445 78.0352 69.3633 78.3828 69.6211 78.6562C69.8789 78.9297 70.1758 79.1328 70.5117 79.2656C70.8555 79.3906 71.2344 79.4531 71.6484 79.4531C72.1797 79.4531 72.6445 79.3516 73.043 79.1484C73.4414 78.9453 73.7734 78.6289 74.0391 78.1992C74.3125 77.7617 74.5156 77.2031 74.6484 76.5234C74.7812 75.8359 74.8477 75.0156 74.8477 74.0625ZM90.5273 71.1094V73.7109C90.5273 75.1094 90.4023 76.2891 90.1523 77.25C89.9023 78.2109 89.543 78.9844 89.0742 79.5703C88.6055 80.1562 88.0391 80.582 87.375 80.8477C86.7188 81.1055 85.9766 81.2344 85.1484 81.2344C84.4922 81.2344 83.8867 81.1523 83.332 80.9883C82.7773 80.8242 82.2773 80.5625 81.832 80.2031C81.3945 79.8359 81.0195 79.3594 80.707 78.7734C80.3945 78.1875 80.1562 77.4766 79.9922 76.6406C79.8281 75.8047 79.7461 74.8281 79.7461 73.7109V71.1094C79.7461 69.7109 79.8711 68.5391 80.1211 67.5938C80.3789 66.6484 80.7422 65.8906 81.2109 65.3203C81.6797 64.7422 82.2422 64.3281 82.8984 64.0781C83.5625 63.8281 84.3047 63.7031 85.125 63.7031C85.7891 63.7031 86.3984 63.7852 86.9531 63.9492C87.5156 64.1055 88.0156 64.3594 88.4531 64.7109C88.8906 65.0547 89.2617 65.5156 89.5664 66.0938C89.8789 66.6641 90.1172 67.3633 90.2812 68.1914C90.4453 69.0195 90.5273 69.9922 90.5273 71.1094ZM88.3477 74.0625V70.7461C88.3477 69.9805 88.3008 69.3086 88.207 68.7305C88.1211 68.1445 87.9922 67.6445 87.8203 67.2305C87.6484 66.8164 87.4297 66.4805 87.1641 66.2227C86.9062 65.9648 86.6055 65.7773 86.2617 65.6602C85.9258 65.5352 85.5469 65.4727 85.125 65.4727C84.6094 65.4727 84.1523 65.5703 83.7539 65.7656C83.3555 65.9531 83.0195 66.2539 82.7461 66.668C82.4805 67.082 82.2773 67.625 82.1367 68.2969C81.9961 68.9688 81.9258 69.7852 81.9258 70.7461V74.0625C81.9258 74.8281 81.9688 75.5039 82.0547 76.0898C82.1484 76.6758 82.2852 77.1836 82.4648 77.6133C82.6445 78.0352 82.8633 78.3828 83.1211 78.6562C83.3789 78.9297 83.6758 79.1328 84.0117 79.2656C84.3555 79.3906 84.7344 79.4531 85.1484 79.4531C85.6797 79.4531 86.1445 79.3516 86.543 79.1484C86.9414 78.9453 87.2734 78.6289 87.5391 78.1992C87.8125 77.7617 88.0156 77.2031 88.1484 76.5234C88.2812 75.8359 88.3477 75.0156 88.3477 74.0625Z" fill="white"/>
<path d="M128.672 132.279C128.672 132.025 128.633 131.798 128.555 131.596C128.483 131.387 128.346 131.199 128.145 131.029C127.943 130.854 127.66 130.681 127.295 130.512C126.93 130.342 126.458 130.167 125.879 129.984C125.234 129.776 124.622 129.542 124.043 129.281C123.47 129.021 122.962 128.718 122.52 128.373C122.083 128.021 121.738 127.615 121.484 127.152C121.237 126.69 121.113 126.153 121.113 125.541C121.113 124.949 121.243 124.411 121.504 123.93C121.764 123.441 122.129 123.025 122.598 122.68C123.066 122.328 123.62 122.058 124.258 121.869C124.902 121.68 125.609 121.586 126.377 121.586C127.425 121.586 128.34 121.775 129.121 122.152C129.902 122.53 130.508 123.048 130.938 123.705C131.374 124.363 131.592 125.115 131.592 125.961H128.682C128.682 125.544 128.594 125.18 128.418 124.867C128.249 124.548 127.988 124.298 127.637 124.115C127.292 123.933 126.855 123.842 126.328 123.842C125.82 123.842 125.397 123.92 125.059 124.076C124.72 124.226 124.466 124.431 124.297 124.691C124.128 124.945 124.043 125.232 124.043 125.551C124.043 125.792 124.102 126.01 124.219 126.205C124.342 126.4 124.525 126.583 124.766 126.752C125.007 126.921 125.303 127.081 125.654 127.23C126.006 127.38 126.413 127.527 126.875 127.67C127.65 127.904 128.33 128.168 128.916 128.461C129.508 128.754 130.003 129.083 130.4 129.447C130.798 129.812 131.097 130.225 131.299 130.688C131.501 131.15 131.602 131.674 131.602 132.26C131.602 132.878 131.481 133.432 131.24 133.92C130.999 134.408 130.651 134.822 130.195 135.16C129.74 135.499 129.196 135.756 128.564 135.932C127.933 136.107 127.227 136.195 126.445 136.195C125.742 136.195 125.049 136.104 124.365 135.922C123.682 135.733 123.06 135.45 122.5 135.072C121.947 134.695 121.504 134.213 121.172 133.627C120.84 133.041 120.674 132.348 120.674 131.547H123.613C123.613 131.99 123.682 132.364 123.818 132.67C123.955 132.976 124.147 133.223 124.395 133.412C124.648 133.601 124.948 133.738 125.293 133.822C125.645 133.907 126.029 133.949 126.445 133.949C126.953 133.949 127.37 133.878 127.695 133.734C128.027 133.591 128.271 133.393 128.428 133.139C128.59 132.885 128.672 132.598 128.672 132.279ZM138.594 125.434V127.426H132.441V125.434H138.594ZM133.965 122.826H136.777V132.816C136.777 133.122 136.816 133.357 136.895 133.52C136.979 133.682 137.103 133.796 137.266 133.861C137.428 133.92 137.633 133.949 137.881 133.949C138.057 133.949 138.213 133.943 138.35 133.93C138.493 133.91 138.613 133.891 138.711 133.871L138.721 135.941C138.48 136.02 138.219 136.081 137.939 136.127C137.66 136.173 137.35 136.195 137.012 136.195C136.393 136.195 135.853 136.094 135.391 135.893C134.935 135.684 134.583 135.352 134.336 134.896C134.089 134.441 133.965 133.842 133.965 133.1V122.826ZM145.898 133.617V128.91C145.898 128.572 145.843 128.282 145.732 128.041C145.622 127.794 145.449 127.602 145.215 127.465C144.987 127.328 144.691 127.26 144.326 127.26C144.014 127.26 143.743 127.315 143.516 127.426C143.288 127.53 143.112 127.683 142.988 127.885C142.865 128.08 142.803 128.311 142.803 128.578H139.99C139.99 128.129 140.094 127.702 140.303 127.299C140.511 126.895 140.814 126.54 141.211 126.234C141.608 125.922 142.08 125.678 142.627 125.502C143.18 125.326 143.799 125.238 144.482 125.238C145.303 125.238 146.032 125.375 146.67 125.648C147.308 125.922 147.809 126.332 148.174 126.879C148.545 127.426 148.73 128.109 148.73 128.93V133.451C148.73 134.031 148.766 134.506 148.838 134.877C148.91 135.242 149.014 135.561 149.15 135.834V136H146.309C146.172 135.714 146.068 135.355 145.996 134.926C145.931 134.49 145.898 134.053 145.898 133.617ZM146.27 129.564L146.289 131.156H144.717C144.346 131.156 144.023 131.199 143.75 131.283C143.477 131.368 143.252 131.488 143.076 131.645C142.9 131.794 142.77 131.97 142.686 132.172C142.607 132.374 142.568 132.595 142.568 132.836C142.568 133.077 142.624 133.295 142.734 133.49C142.845 133.679 143.005 133.829 143.213 133.939C143.421 134.044 143.665 134.096 143.945 134.096C144.368 134.096 144.736 134.011 145.049 133.842C145.361 133.673 145.602 133.464 145.771 133.217C145.947 132.969 146.038 132.735 146.045 132.514L146.787 133.705C146.683 133.972 146.54 134.249 146.357 134.535C146.182 134.822 145.957 135.092 145.684 135.346C145.41 135.593 145.081 135.798 144.697 135.961C144.313 136.117 143.857 136.195 143.33 136.195C142.66 136.195 142.051 136.062 141.504 135.795C140.964 135.521 140.534 135.147 140.215 134.672C139.902 134.19 139.746 133.643 139.746 133.031C139.746 132.478 139.85 131.986 140.059 131.557C140.267 131.127 140.573 130.766 140.977 130.473C141.387 130.173 141.898 129.949 142.51 129.799C143.122 129.643 143.831 129.564 144.639 129.564H146.27ZM153.711 127.738V136H150.898V125.434H153.545L153.711 127.738ZM156.895 125.365L156.846 127.973C156.709 127.953 156.543 127.937 156.348 127.924C156.159 127.904 155.986 127.895 155.83 127.895C155.433 127.895 155.088 127.947 154.795 128.051C154.508 128.148 154.268 128.295 154.072 128.49C153.883 128.686 153.74 128.923 153.643 129.203C153.551 129.483 153.499 129.802 153.486 130.16L152.92 129.984C152.92 129.301 152.988 128.673 153.125 128.1C153.262 127.52 153.46 127.016 153.721 126.586C153.988 126.156 154.313 125.824 154.697 125.59C155.081 125.355 155.521 125.238 156.016 125.238C156.172 125.238 156.331 125.251 156.494 125.277C156.657 125.297 156.79 125.326 156.895 125.365ZM163.887 125.434V127.426H157.734V125.434H163.887ZM159.258 122.826H162.07V132.816C162.07 133.122 162.109 133.357 162.188 133.52C162.272 133.682 162.396 133.796 162.559 133.861C162.721 133.92 162.926 133.949 163.174 133.949C163.35 133.949 163.506 133.943 163.643 133.93C163.786 133.91 163.906 133.891 164.004 133.871L164.014 135.941C163.773 136.02 163.512 136.081 163.232 136.127C162.952 136.173 162.643 136.195 162.305 136.195C161.686 136.195 161.146 136.094 160.684 135.893C160.228 135.684 159.876 135.352 159.629 134.896C159.382 134.441 159.258 133.842 159.258 133.1V122.826ZM170.352 136.195C169.531 136.195 168.796 136.065 168.145 135.805C167.493 135.538 166.94 135.17 166.484 134.701C166.035 134.232 165.69 133.689 165.449 133.07C165.208 132.445 165.088 131.781 165.088 131.078V130.688C165.088 129.887 165.202 129.154 165.43 128.49C165.658 127.826 165.983 127.25 166.406 126.762C166.836 126.273 167.357 125.899 167.969 125.639C168.581 125.372 169.271 125.238 170.039 125.238C170.788 125.238 171.452 125.362 172.031 125.609C172.611 125.857 173.096 126.208 173.486 126.664C173.883 127.12 174.183 127.667 174.385 128.305C174.587 128.936 174.688 129.639 174.688 130.414V131.586H166.289V129.711H171.924V129.496C171.924 129.105 171.852 128.757 171.709 128.451C171.572 128.139 171.364 127.891 171.084 127.709C170.804 127.527 170.446 127.436 170.01 127.436C169.639 127.436 169.32 127.517 169.053 127.68C168.786 127.842 168.568 128.07 168.398 128.363C168.236 128.656 168.112 129.001 168.027 129.398C167.949 129.789 167.91 130.219 167.91 130.688V131.078C167.91 131.501 167.969 131.892 168.086 132.25C168.21 132.608 168.382 132.917 168.604 133.178C168.831 133.438 169.105 133.64 169.424 133.783C169.749 133.926 170.117 133.998 170.527 133.998C171.035 133.998 171.507 133.9 171.943 133.705C172.386 133.503 172.767 133.201 173.086 132.797L174.453 134.281C174.232 134.6 173.929 134.906 173.545 135.199C173.167 135.492 172.712 135.733 172.178 135.922C171.644 136.104 171.035 136.195 170.352 136.195ZM179.102 127.738V136H176.289V125.434H178.936L179.102 127.738ZM182.285 125.365L182.236 127.973C182.1 127.953 181.934 127.937 181.738 127.924C181.549 127.904 181.377 127.895 181.221 127.895C180.824 127.895 180.479 127.947 180.186 128.051C179.899 128.148 179.658 128.295 179.463 128.49C179.274 128.686 179.131 128.923 179.033 129.203C178.942 129.483 178.89 129.802 178.877 130.16L178.311 129.984C178.311 129.301 178.379 128.673 178.516 128.1C178.652 127.52 178.851 127.016 179.111 126.586C179.378 126.156 179.704 125.824 180.088 125.59C180.472 125.355 180.911 125.238 181.406 125.238C181.562 125.238 181.722 125.251 181.885 125.277C182.048 125.297 182.181 125.326 182.285 125.365Z" fill="white"/>
<path d="M102.607 211.781H105.088L108.74 222.221L112.393 211.781H114.873L109.736 226H107.744L102.607 211.781ZM101.27 211.781H103.74L104.189 221.957V226H101.27V211.781ZM113.74 211.781H116.221V226H113.291V221.957L113.74 211.781ZM124.316 223.617V218.91C124.316 218.572 124.261 218.282 124.15 218.041C124.04 217.794 123.867 217.602 123.633 217.465C123.405 217.328 123.109 217.26 122.744 217.26C122.432 217.26 122.161 217.315 121.934 217.426C121.706 217.53 121.53 217.683 121.406 217.885C121.283 218.08 121.221 218.311 121.221 218.578H118.408C118.408 218.129 118.512 217.702 118.721 217.299C118.929 216.895 119.232 216.54 119.629 216.234C120.026 215.922 120.498 215.678 121.045 215.502C121.598 215.326 122.217 215.238 122.9 215.238C123.721 215.238 124.45 215.375 125.088 215.648C125.726 215.922 126.227 216.332 126.592 216.879C126.963 217.426 127.148 218.109 127.148 218.93V223.451C127.148 224.031 127.184 224.506 127.256 224.877C127.327 225.242 127.432 225.561 127.568 225.834V226H124.727C124.59 225.714 124.486 225.355 124.414 224.926C124.349 224.49 124.316 224.053 124.316 223.617ZM124.688 219.564L124.707 221.156H123.135C122.764 221.156 122.441 221.199 122.168 221.283C121.895 221.368 121.67 221.488 121.494 221.645C121.318 221.794 121.188 221.97 121.104 222.172C121.025 222.374 120.986 222.595 120.986 222.836C120.986 223.077 121.042 223.295 121.152 223.49C121.263 223.679 121.423 223.829 121.631 223.939C121.839 224.044 122.083 224.096 122.363 224.096C122.786 224.096 123.154 224.011 123.467 223.842C123.779 223.673 124.02 223.464 124.189 223.217C124.365 222.969 124.456 222.735 124.463 222.514L125.205 223.705C125.101 223.972 124.958 224.249 124.775 224.535C124.6 224.822 124.375 225.092 124.102 225.346C123.828 225.593 123.499 225.798 123.115 225.961C122.731 226.117 122.275 226.195 121.748 226.195C121.077 226.195 120.469 226.062 119.922 225.795C119.382 225.521 118.952 225.147 118.633 224.672C118.32 224.19 118.164 223.643 118.164 223.031C118.164 222.478 118.268 221.986 118.477 221.557C118.685 221.127 118.991 220.766 119.395 220.473C119.805 220.173 120.316 219.949 120.928 219.799C121.54 219.643 122.249 219.564 123.057 219.564H124.688ZM132.285 215.434V226H129.463V215.434H132.285ZM129.287 212.68C129.287 212.27 129.43 211.931 129.717 211.664C130.003 211.397 130.387 211.264 130.869 211.264C131.344 211.264 131.725 211.397 132.012 211.664C132.305 211.931 132.451 212.27 132.451 212.68C132.451 213.09 132.305 213.428 132.012 213.695C131.725 213.962 131.344 214.096 130.869 214.096C130.387 214.096 130.003 213.962 129.717 213.695C129.43 213.428 129.287 213.09 129.287 212.68ZM137.363 217.689V226H134.551V215.434H137.188L137.363 217.689ZM136.953 220.346H136.191C136.191 219.564 136.292 218.861 136.494 218.236C136.696 217.605 136.979 217.068 137.344 216.625C137.708 216.176 138.141 215.834 138.643 215.6C139.15 215.359 139.717 215.238 140.342 215.238C140.837 215.238 141.289 215.31 141.699 215.453C142.109 215.596 142.461 215.824 142.754 216.137C143.053 216.449 143.281 216.863 143.438 217.377C143.6 217.891 143.682 218.52 143.682 219.262V226H140.85V219.252C140.85 218.783 140.785 218.419 140.654 218.158C140.524 217.898 140.332 217.715 140.078 217.611C139.831 217.501 139.525 217.445 139.16 217.445C138.783 217.445 138.454 217.52 138.174 217.67C137.9 217.82 137.673 218.028 137.49 218.295C137.314 218.555 137.181 218.861 137.09 219.213C136.999 219.564 136.953 219.942 136.953 220.346ZM151.895 211.781L146.68 227.221H144.59L149.805 211.781H151.895ZM160.82 222.279C160.82 222.025 160.781 221.798 160.703 221.596C160.632 221.387 160.495 221.199 160.293 221.029C160.091 220.854 159.808 220.681 159.443 220.512C159.079 220.342 158.607 220.167 158.027 219.984C157.383 219.776 156.771 219.542 156.191 219.281C155.618 219.021 155.111 218.718 154.668 218.373C154.232 218.021 153.887 217.615 153.633 217.152C153.385 216.69 153.262 216.153 153.262 215.541C153.262 214.949 153.392 214.411 153.652 213.93C153.913 213.441 154.277 213.025 154.746 212.68C155.215 212.328 155.768 212.058 156.406 211.869C157.051 211.68 157.757 211.586 158.525 211.586C159.574 211.586 160.488 211.775 161.27 212.152C162.051 212.53 162.656 213.048 163.086 213.705C163.522 214.363 163.74 215.115 163.74 215.961H160.83C160.83 215.544 160.742 215.18 160.566 214.867C160.397 214.548 160.137 214.298 159.785 214.115C159.44 213.933 159.004 213.842 158.477 213.842C157.969 213.842 157.546 213.92 157.207 214.076C156.868 214.226 156.615 214.431 156.445 214.691C156.276 214.945 156.191 215.232 156.191 215.551C156.191 215.792 156.25 216.01 156.367 216.205C156.491 216.4 156.673 216.583 156.914 216.752C157.155 216.921 157.451 217.081 157.803 217.23C158.154 217.38 158.561 217.527 159.023 217.67C159.798 217.904 160.479 218.168 161.064 218.461C161.657 218.754 162.152 219.083 162.549 219.447C162.946 219.812 163.245 220.225 163.447 220.688C163.649 221.15 163.75 221.674 163.75 222.26C163.75 222.878 163.63 223.432 163.389 223.92C163.148 224.408 162.799 224.822 162.344 225.16C161.888 225.499 161.344 225.756 160.713 225.932C160.081 226.107 159.375 226.195 158.594 226.195C157.891 226.195 157.197 226.104 156.514 225.922C155.83 225.733 155.208 225.45 154.648 225.072C154.095 224.695 153.652 224.213 153.32 223.627C152.988 223.041 152.822 222.348 152.822 221.547H155.762C155.762 221.99 155.83 222.364 155.967 222.67C156.104 222.976 156.296 223.223 156.543 223.412C156.797 223.601 157.096 223.738 157.441 223.822C157.793 223.907 158.177 223.949 158.594 223.949C159.102 223.949 159.518 223.878 159.844 223.734C160.176 223.591 160.42 223.393 160.576 223.139C160.739 222.885 160.82 222.598 160.82 222.279ZM171.816 223.471V215.434H174.629V226H171.982L171.816 223.471ZM172.129 221.303L172.959 221.283C172.959 221.986 172.878 222.641 172.715 223.246C172.552 223.845 172.308 224.366 171.982 224.809C171.657 225.245 171.247 225.587 170.752 225.834C170.257 226.075 169.674 226.195 169.004 226.195C168.49 226.195 168.014 226.124 167.578 225.98C167.148 225.831 166.777 225.6 166.465 225.287C166.159 224.968 165.918 224.561 165.742 224.066C165.573 223.565 165.488 222.963 165.488 222.26V215.434H168.301V222.279C168.301 222.592 168.337 222.855 168.408 223.07C168.486 223.285 168.594 223.461 168.73 223.598C168.867 223.734 169.027 223.832 169.209 223.891C169.398 223.949 169.606 223.979 169.834 223.979C170.413 223.979 170.869 223.861 171.201 223.627C171.54 223.393 171.777 223.074 171.914 222.67C172.057 222.26 172.129 221.804 172.129 221.303ZM182.49 223.08C182.49 222.878 182.432 222.696 182.314 222.533C182.197 222.37 181.979 222.221 181.66 222.084C181.348 221.941 180.895 221.811 180.303 221.693C179.769 221.576 179.271 221.43 178.809 221.254C178.353 221.072 177.956 220.854 177.617 220.6C177.285 220.346 177.025 220.046 176.836 219.701C176.647 219.35 176.553 218.949 176.553 218.5C176.553 218.057 176.647 217.641 176.836 217.25C177.031 216.859 177.308 216.514 177.666 216.215C178.031 215.909 178.473 215.671 178.994 215.502C179.521 215.326 180.114 215.238 180.771 215.238C181.689 215.238 182.477 215.385 183.135 215.678C183.799 215.971 184.307 216.374 184.658 216.889C185.016 217.396 185.195 217.976 185.195 218.627H182.383C182.383 218.354 182.324 218.109 182.207 217.895C182.096 217.673 181.921 217.501 181.68 217.377C181.445 217.247 181.139 217.182 180.762 217.182C180.449 217.182 180.179 217.237 179.951 217.348C179.723 217.452 179.548 217.595 179.424 217.777C179.307 217.953 179.248 218.148 179.248 218.363C179.248 218.526 179.281 218.673 179.346 218.803C179.417 218.926 179.531 219.04 179.688 219.145C179.844 219.249 180.046 219.346 180.293 219.438C180.547 219.522 180.859 219.6 181.23 219.672C181.992 219.828 182.673 220.033 183.271 220.287C183.87 220.535 184.346 220.873 184.697 221.303C185.049 221.726 185.225 222.283 185.225 222.973C185.225 223.441 185.12 223.871 184.912 224.262C184.704 224.652 184.404 224.994 184.014 225.287C183.623 225.574 183.154 225.798 182.607 225.961C182.067 226.117 181.458 226.195 180.781 226.195C179.798 226.195 178.965 226.02 178.281 225.668C177.604 225.316 177.09 224.87 176.738 224.33C176.393 223.783 176.221 223.223 176.221 222.65H178.887C178.9 223.035 178.997 223.344 179.18 223.578C179.368 223.812 179.606 223.982 179.893 224.086C180.186 224.19 180.501 224.242 180.84 224.242C181.204 224.242 181.507 224.193 181.748 224.096C181.989 223.992 182.171 223.855 182.295 223.686C182.425 223.51 182.49 223.308 182.49 223.08ZM189.795 211V226H186.982V211H189.795ZM189.395 220.346H188.623C188.63 219.61 188.727 218.933 188.916 218.314C189.105 217.689 189.375 217.149 189.727 216.693C190.078 216.231 190.498 215.873 190.986 215.619C191.481 215.365 192.028 215.238 192.627 215.238C193.148 215.238 193.62 215.313 194.043 215.463C194.473 215.606 194.84 215.84 195.146 216.166C195.459 216.485 195.7 216.905 195.869 217.426C196.038 217.947 196.123 218.578 196.123 219.32V226H193.291V219.301C193.291 218.832 193.223 218.464 193.086 218.197C192.956 217.924 192.764 217.732 192.51 217.621C192.262 217.504 191.956 217.445 191.592 217.445C191.188 217.445 190.843 217.52 190.557 217.67C190.277 217.82 190.052 218.028 189.883 218.295C189.714 218.555 189.59 218.861 189.512 219.213C189.434 219.564 189.395 219.942 189.395 220.346ZM201.23 215.434V226H198.408V215.434H201.23ZM198.232 212.68C198.232 212.27 198.376 211.931 198.662 211.664C198.949 211.397 199.333 211.264 199.814 211.264C200.29 211.264 200.671 211.397 200.957 211.664C201.25 211.931 201.396 212.27 201.396 212.68C201.396 213.09 201.25 213.428 200.957 213.695C200.671 213.962 200.29 214.096 199.814 214.096C199.333 214.096 198.949 213.962 198.662 213.695C198.376 213.428 198.232 213.09 198.232 212.68Z" fill="white"/>
<path d="M121.635 304H118.539L118.559 301.715H121.635C122.403 301.715 123.051 301.542 123.578 301.197C124.105 300.846 124.503 300.335 124.77 299.664C125.043 298.993 125.18 298.183 125.18 297.232V296.539C125.18 295.81 125.102 295.169 124.945 294.615C124.796 294.062 124.571 293.596 124.271 293.219C123.972 292.841 123.604 292.558 123.168 292.369C122.732 292.174 122.23 292.076 121.664 292.076H118.48V289.781H121.664C122.615 289.781 123.484 289.944 124.271 290.27C125.066 290.589 125.753 291.048 126.332 291.646C126.911 292.245 127.357 292.962 127.67 293.795C127.989 294.622 128.148 295.543 128.148 296.559V297.232C128.148 298.242 127.989 299.163 127.67 299.996C127.357 300.829 126.911 301.546 126.332 302.145C125.759 302.737 125.072 303.196 124.271 303.521C123.477 303.84 122.598 304 121.635 304ZM120.199 289.781V304H117.27V289.781H120.199ZM134.965 304.195C134.145 304.195 133.409 304.065 132.758 303.805C132.107 303.538 131.553 303.17 131.098 302.701C130.648 302.232 130.303 301.689 130.062 301.07C129.822 300.445 129.701 299.781 129.701 299.078V298.688C129.701 297.887 129.815 297.154 130.043 296.49C130.271 295.826 130.596 295.25 131.02 294.762C131.449 294.273 131.97 293.899 132.582 293.639C133.194 293.372 133.884 293.238 134.652 293.238C135.401 293.238 136.065 293.362 136.645 293.609C137.224 293.857 137.709 294.208 138.1 294.664C138.497 295.12 138.796 295.667 138.998 296.305C139.2 296.936 139.301 297.639 139.301 298.414V299.586H130.902V297.711H136.537V297.496C136.537 297.105 136.465 296.757 136.322 296.451C136.186 296.139 135.977 295.891 135.697 295.709C135.417 295.527 135.059 295.436 134.623 295.436C134.252 295.436 133.933 295.517 133.666 295.68C133.399 295.842 133.181 296.07 133.012 296.363C132.849 296.656 132.725 297.001 132.641 297.398C132.562 297.789 132.523 298.219 132.523 298.688V299.078C132.523 299.501 132.582 299.892 132.699 300.25C132.823 300.608 132.995 300.917 133.217 301.178C133.445 301.438 133.718 301.64 134.037 301.783C134.363 301.926 134.73 301.998 135.141 301.998C135.648 301.998 136.12 301.9 136.557 301.705C136.999 301.503 137.38 301.201 137.699 300.797L139.066 302.281C138.845 302.6 138.542 302.906 138.158 303.199C137.781 303.492 137.325 303.733 136.791 303.922C136.257 304.104 135.648 304.195 134.965 304.195ZM146.615 301.08C146.615 300.878 146.557 300.696 146.439 300.533C146.322 300.37 146.104 300.221 145.785 300.084C145.473 299.941 145.02 299.811 144.428 299.693C143.894 299.576 143.396 299.43 142.934 299.254C142.478 299.072 142.081 298.854 141.742 298.6C141.41 298.346 141.15 298.046 140.961 297.701C140.772 297.35 140.678 296.949 140.678 296.5C140.678 296.057 140.772 295.641 140.961 295.25C141.156 294.859 141.433 294.514 141.791 294.215C142.156 293.909 142.598 293.671 143.119 293.502C143.646 293.326 144.239 293.238 144.896 293.238C145.814 293.238 146.602 293.385 147.26 293.678C147.924 293.971 148.432 294.374 148.783 294.889C149.141 295.396 149.32 295.976 149.32 296.627H146.508C146.508 296.354 146.449 296.109 146.332 295.895C146.221 295.673 146.046 295.501 145.805 295.377C145.57 295.247 145.264 295.182 144.887 295.182C144.574 295.182 144.304 295.237 144.076 295.348C143.848 295.452 143.673 295.595 143.549 295.777C143.432 295.953 143.373 296.148 143.373 296.363C143.373 296.526 143.406 296.673 143.471 296.803C143.542 296.926 143.656 297.04 143.812 297.145C143.969 297.249 144.171 297.346 144.418 297.438C144.672 297.522 144.984 297.6 145.355 297.672C146.117 297.828 146.798 298.033 147.396 298.287C147.995 298.535 148.471 298.873 148.822 299.303C149.174 299.726 149.35 300.283 149.35 300.973C149.35 301.441 149.245 301.871 149.037 302.262C148.829 302.652 148.529 302.994 148.139 303.287C147.748 303.574 147.279 303.798 146.732 303.961C146.192 304.117 145.583 304.195 144.906 304.195C143.923 304.195 143.09 304.02 142.406 303.668C141.729 303.316 141.215 302.87 140.863 302.33C140.518 301.783 140.346 301.223 140.346 300.65H143.012C143.025 301.035 143.122 301.344 143.305 301.578C143.493 301.812 143.731 301.982 144.018 302.086C144.311 302.19 144.626 302.242 144.965 302.242C145.329 302.242 145.632 302.193 145.873 302.096C146.114 301.992 146.296 301.855 146.42 301.686C146.55 301.51 146.615 301.308 146.615 301.08ZM156.889 301.08C156.889 300.878 156.83 300.696 156.713 300.533C156.596 300.37 156.378 300.221 156.059 300.084C155.746 299.941 155.294 299.811 154.701 299.693C154.167 299.576 153.669 299.43 153.207 299.254C152.751 299.072 152.354 298.854 152.016 298.6C151.684 298.346 151.423 298.046 151.234 297.701C151.046 297.35 150.951 296.949 150.951 296.5C150.951 296.057 151.046 295.641 151.234 295.25C151.43 294.859 151.706 294.514 152.064 294.215C152.429 293.909 152.872 293.671 153.393 293.502C153.92 293.326 154.512 293.238 155.17 293.238C156.088 293.238 156.876 293.385 157.533 293.678C158.197 293.971 158.705 294.374 159.057 294.889C159.415 295.396 159.594 295.976 159.594 296.627H156.781C156.781 296.354 156.723 296.109 156.605 295.895C156.495 295.673 156.319 295.501 156.078 295.377C155.844 295.247 155.538 295.182 155.16 295.182C154.848 295.182 154.577 295.237 154.35 295.348C154.122 295.452 153.946 295.595 153.822 295.777C153.705 295.953 153.646 296.148 153.646 296.363C153.646 296.526 153.679 296.673 153.744 296.803C153.816 296.926 153.93 297.04 154.086 297.145C154.242 297.249 154.444 297.346 154.691 297.438C154.945 297.522 155.258 297.6 155.629 297.672C156.391 297.828 157.071 298.033 157.67 298.287C158.269 298.535 158.744 298.873 159.096 299.303C159.447 299.726 159.623 300.283 159.623 300.973C159.623 301.441 159.519 301.871 159.311 302.262C159.102 302.652 158.803 302.994 158.412 303.287C158.021 303.574 157.553 303.798 157.006 303.961C156.465 304.117 155.857 304.195 155.18 304.195C154.197 304.195 153.363 304.02 152.68 303.668C152.003 303.316 151.488 302.87 151.137 302.33C150.792 301.783 150.619 301.223 150.619 300.65H153.285C153.298 301.035 153.396 301.344 153.578 301.578C153.767 301.812 154.005 301.982 154.291 302.086C154.584 302.19 154.9 302.242 155.238 302.242C155.603 302.242 155.906 302.193 156.146 302.096C156.387 301.992 156.57 301.855 156.693 301.686C156.824 301.51 156.889 301.308 156.889 301.08ZM166.312 304.195C165.492 304.195 164.757 304.065 164.105 303.805C163.454 303.538 162.901 303.17 162.445 302.701C161.996 302.232 161.651 301.689 161.41 301.07C161.169 300.445 161.049 299.781 161.049 299.078V298.688C161.049 297.887 161.163 297.154 161.391 296.49C161.618 295.826 161.944 295.25 162.367 294.762C162.797 294.273 163.318 293.899 163.93 293.639C164.542 293.372 165.232 293.238 166 293.238C166.749 293.238 167.413 293.362 167.992 293.609C168.572 293.857 169.057 294.208 169.447 294.664C169.844 295.12 170.144 295.667 170.346 296.305C170.548 296.936 170.648 297.639 170.648 298.414V299.586H162.25V297.711H167.885V297.496C167.885 297.105 167.813 296.757 167.67 296.451C167.533 296.139 167.325 295.891 167.045 295.709C166.765 295.527 166.407 295.436 165.971 295.436C165.6 295.436 165.281 295.517 165.014 295.68C164.747 295.842 164.529 296.07 164.359 296.363C164.197 296.656 164.073 297.001 163.988 297.398C163.91 297.789 163.871 298.219 163.871 298.688V299.078C163.871 299.501 163.93 299.892 164.047 300.25C164.171 300.608 164.343 300.917 164.564 301.178C164.792 301.438 165.066 301.64 165.385 301.783C165.71 301.926 166.078 301.998 166.488 301.998C166.996 301.998 167.468 301.9 167.904 301.705C168.347 301.503 168.728 301.201 169.047 300.797L170.414 302.281C170.193 302.6 169.89 302.906 169.506 303.199C169.128 303.492 168.673 303.733 168.139 303.922C167.605 304.104 166.996 304.195 166.312 304.195ZM175.062 295.738V304H172.25V293.434H174.896L175.062 295.738ZM178.246 293.365L178.197 295.973C178.061 295.953 177.895 295.937 177.699 295.924C177.51 295.904 177.338 295.895 177.182 295.895C176.785 295.895 176.439 295.947 176.146 296.051C175.86 296.148 175.619 296.295 175.424 296.49C175.235 296.686 175.092 296.923 174.994 297.203C174.903 297.483 174.851 297.802 174.838 298.16L174.271 297.984C174.271 297.301 174.34 296.673 174.477 296.1C174.613 295.52 174.812 295.016 175.072 294.586C175.339 294.156 175.665 293.824 176.049 293.59C176.433 293.355 176.872 293.238 177.367 293.238C177.523 293.238 177.683 293.251 177.846 293.277C178.008 293.297 178.142 293.326 178.246 293.365ZM185.238 293.434V295.426H179.086V293.434H185.238ZM180.609 290.826H183.422V300.816C183.422 301.122 183.461 301.357 183.539 301.52C183.624 301.682 183.747 301.796 183.91 301.861C184.073 301.92 184.278 301.949 184.525 301.949C184.701 301.949 184.857 301.943 184.994 301.93C185.137 301.91 185.258 301.891 185.355 301.871L185.365 303.941C185.124 304.02 184.864 304.081 184.584 304.127C184.304 304.173 183.995 304.195 183.656 304.195C183.038 304.195 182.497 304.094 182.035 303.893C181.579 303.684 181.228 303.352 180.98 302.896C180.733 302.441 180.609 301.842 180.609 301.1V290.826Z" fill="white"/>
<rect x="54.5" y="163.5" width="194" height="34" rx="4.5" fill="#2F2F2F" stroke="black"/>
<rect x="54.5" y="241.5" width="194" height="34" rx="4.5" fill="#2F2F2F" stroke="black"/>
<rect x="54.5" y="319.5" width="194" height="34" rx="4.5" fill="#2F2F2F" stroke="black"/>
<path d="M146.852 172.781V187H143.922L138.209 177.469V187H135.279V172.781H138.209L143.932 182.322V172.781H146.852ZM155.299 172.781L150.084 188.221H147.994L153.209 172.781H155.299ZM162.604 175.213L158.736 187H155.621L160.904 172.781H162.887L162.604 175.213ZM165.816 187L161.939 175.213L161.627 172.781H163.629L168.941 187H165.816ZM165.641 181.707V184.002H158.131V181.707H165.641Z" fill="white"/>
<path d="M146.852 250.781V265H143.922L138.209 255.469V265H135.279V250.781H138.209L143.932 260.322V250.781H146.852ZM155.299 250.781L150.084 266.221H147.994L153.209 250.781H155.299ZM162.604 253.213L158.736 265H155.621L160.904 250.781H162.887L162.604 253.213ZM165.816 265L161.939 253.213L161.627 250.781H163.629L168.941 265H165.816ZM165.641 259.707V262.002H158.131V259.707H165.641Z" fill="white"/>
<path d="M146.852 328.781V343H143.922L138.209 333.469V343H135.279V328.781H138.209L143.932 338.322V328.781H146.852ZM155.299 328.781L150.084 344.221H147.994L153.209 328.781H155.299ZM162.604 331.213L158.736 343H155.621L160.904 328.781H162.887L162.604 331.213ZM165.816 343L161.939 331.213L161.627 328.781H163.629L168.941 343H165.816ZM165.641 337.707V340.002H158.131V337.707H165.641Z" fill="white"/>
<defs>
<filter id="filter0_d_122_16" x="0" y="34" width="302" height="372" filterUnits="userSpaceOnUse" color-interpolation-filters="sRGB">
<feFlood flood-opacity="0" result="BackgroundImageFix"/>
<feColorMatrix in="SourceAlpha" type="matrix" values="0 0 0 0 0 0 0 0 0 0 0 0 0 0 0 0 0 0 127 0" result="hardAlpha"/>
<feMorphology radius="1" operator="dilate" in="SourceAlpha" result="effect1_dropShadow_122_16"/>
<feOffset/>
<feGaussianBlur stdDeviation="5"/>
<feComposite in2="hardAlpha" operator="out"/>
<feColorMatrix type="matrix" values="0 0 0 0 0 0 0 0 0 0 0 0 0 0 0 0 0 0 0.6 0"/>
<feBlend mode="normal" in2="BackgroundImageFix" result="effect1_dropShadow_122_16"/>
<feBlend mode="normal" in="SourceGraphic" in2="effect1_dropShadow_122_16" result="shape"/>
</filter>
</defs>
</svg>
