<svg width="172" height="378" viewBox="0 0 172 378" fill="none" xmlns="http://www.w3.org/2000/svg">
<path d="M81.28 0.619996L94.6 3.67999C87.22 24.2 75.52 44 63.46 56.96C60.94 54.8 55.18 50.84 51.76 49.22C64.36 37.34 74.98 18.98 81.28 0.619996ZM80.2 18.98H167.14V30.32H74.26L80.2 18.98ZM85.78 72.8V85.22H142.66V72.8H85.78ZM85.78 51.74V63.98H142.66V51.74H85.78ZM73.54 42.38H155.26V94.76H73.54V42.38ZM94.24 91.34L106.12 94.76C96.22 112.76 78.94 128.6 62.38 138.68C60.4 136.34 55.72 132.02 53.02 130.04C69.58 121.22 85.6 107.18 94.24 91.34ZM89.74 113.48C103.42 134.9 134.2 150.2 171.28 154.88C168.4 157.58 164.98 162.98 163.18 166.22C125.02 160.28 94.78 142.64 78.94 116.9L89.74 113.48ZM90.28 106.82H145.9V116.72H82L90.28 106.82ZM142.3 106.82H145L147.34 106.28L155.62 110.6C138.88 144.44 98.92 160.1 57.7 166.76C56.62 163.52 53.92 158.48 51.58 155.42C90.28 150.56 128.44 136.52 142.3 108.8V106.82ZM44.56 37.52L56.8 42.02C44.38 63.62 25.48 85.4 7.84 99.8C6.58 96.92 2.62 90.62 0.1 87.74C16.84 75.5 33.94 56.6 44.56 37.52ZM40.42 0.979992L52.48 5.66C42.04 20.78 25.12 37.7 9.82 48.5C8.02 45.8 4.6 41.12 2.26 38.6C16.3 29.06 32.5 13.76 40.42 0.979992ZM28.36 71L39.34 60.02L41.14 60.92V167.12H28.36V71ZM29.8 303.06H144.82V377.94H130.96V313.86H43.12V377.94H29.8V303.06ZM36.82 331.14H135.28V341.94H36.82V331.14ZM37.36 360.12H135.28V370.92H37.36V360.12ZM79.12 286.14L93.34 288.84C89.38 296.76 84.7 304.86 80.92 310.26L69.94 307.38C73.36 301.26 77.32 292.08 79.12 286.14ZM9.46 221.16H69.4V231.96H9.46V221.16ZM65.8 221.16H78.22V280.74C78.22 286.68 76.78 289.74 72.46 291.54C67.78 293.34 60.58 293.34 49.06 293.34C48.52 290.28 46.9 286.14 45.28 283.26C53.56 283.44 60.76 283.44 62.92 283.26C65.26 283.26 65.8 282.54 65.8 280.74V221.16ZM89.56 221.16H152.38V231.96H89.56V221.16ZM146.26 221.16H158.86V280.74C158.86 287.04 157.6 290.1 152.74 292.08C148.06 293.88 140.32 294.06 128.26 293.88C127.72 290.82 126.1 286.32 124.48 283.26C132.94 283.62 140.86 283.62 143.2 283.44C145.54 283.26 146.26 282.9 146.26 280.74V221.16ZM85.42 274.26C98.56 270.12 117.64 263.46 136.54 256.8L138.52 266.7C121.96 273 104.32 279.84 90.46 284.7L85.42 274.26ZM94.6 241.86L101.62 233.76C110.26 237.9 120.88 244.74 125.92 250.14L118.54 259.14C113.68 253.56 103.24 246.36 94.6 241.86ZM5.14 277.86C17.56 273.9 35.56 267.06 53.56 260.4L55.72 270.48C39.88 276.96 23.5 283.8 10.36 289.02L5.14 277.86ZM17.02 241.68L24.22 233.76C32.68 238.26 43.12 245.28 47.98 250.68L40.6 259.5C35.74 254.1 25.66 246.54 17.02 241.68Z" fill="#8D3333" fill-opacity="0.4"/>
</svg>
