<svg width="236" height="235" viewBox="0 0 236 235" fill="none" xmlns="http://www.w3.org/2000/svg">
<g clip-path="url(#clip0_39_21)">
<path d="M235.293 0.00926024C204.265 6.71139 132.519 21.9858 93.5759 60.6513C67.3601 86.714 50.1761 118.251 49.4151 143.296L90.7784 184.943C115.82 184.309 147.43 167.345 173.638 141.341C212.566 102.666 228.33 31.0461 235.244 0.0581099L235.294 0.00848508L235.293 0.00926024ZM176.14 58.7542C180.35 62.9934 182.704 68.7316 182.684 74.7063C182.663 80.6811 180.27 86.403 176.031 90.6134C171.792 94.8237 166.054 97.1776 160.079 97.1572C154.104 97.1368 148.382 94.7438 144.172 90.5045C139.961 86.2653 137.608 80.5271 137.628 74.5524C137.648 68.5776 140.041 62.8557 144.281 58.6453C148.52 54.435 154.258 52.0811 160.233 52.1015C166.208 52.1219 171.929 54.515 176.14 58.7542Z" fill="#187BCD"/>
<path fill-rule="evenodd" clip-rule="evenodd" d="M56.3202 103.564C19.9381 85.7702 2.35691 119.511 0.00480065 138.56C16.6811 132.392 26.9685 131.049 43.6391 135.278C45.4095 129.297 47.5819 121.809 49.8053 116.719C52.0287 111.628 53.5079 109.528 56.3196 103.564L56.3202 103.564Z" fill="#187BCD"/>
<path fill-rule="evenodd" clip-rule="evenodd" d="M130.567 178.32C148.112 214.823 114.252 232.173 95.1875 234.395C101.469 217.761 102.882 207.483 98.7675 190.784C104.76 189.055 112.262 186.933 117.368 184.745C122.474 182.556 124.584 181.091 130.567 178.321L130.567 178.32Z" fill="#187BCD"/>
<path d="M12.8795 220.909C15.1136 210.898 20.2067 187.751 32.7869 175.252C41.2658 166.839 51.4928 161.357 59.5878 161.165L72.9527 174.622C72.6926 182.712 67.1418 192.887 58.6816 201.299C46.0995 213.791 22.9242 218.726 12.8957 220.892L12.8795 220.909Z" fill="#187BCD"/>
</g>
<defs>
<clipPath id="clip0_39_21">
<rect width="235.291" height="234.384" fill="white"/>
</clipPath>
</defs>
</svg>
