<svg width="92" height="98" viewBox="0 0 92 98" fill="none" xmlns="http://www.w3.org/2000/svg">
<g clip-path="url(#clip0_88_10)">
<path d="M55.8415 40.7474C54.4326 41.9802 52.9426 43.2155 51.5074 44.3859C49.9787 43.2062 48.6282 41.8496 47.4544 40.3149C48.1914 39.3789 48.953 38.4712 49.7359 37.5382C50.1748 37.0151 50.6203 36.4841 51.0719 35.9357L51.5986 35.2962L51.0682 34.6598C50.779 34.3127 50.5941 33.9638 50.3562 33.5151C50.2505 33.3156 50.1343 33.0964 49.9939 32.8488C49.6189 32.0011 49.3532 31.2796 49.1762 30.4831L49.1357 30.3007L49.0321 30.1453C48.966 30.0461 48.9 29.8517 48.9 29.6V28.6868L47.9905 28.6041C46.0543 28.4281 44.1954 28.252 42.3441 28.0758C42.1659 26.9717 42.1 25.7983 42.1 24.6C42.1 23.8206 42.1531 23.0989 42.2589 22.3917C44.1115 22.1487 46.0388 21.9733 47.9905 21.7959L48.9 21.7132V20.8C48.9 20.6923 48.9452 20.4458 49.0944 20.1472L49.1435 20.049L49.1702 19.9425C49.3577 19.1924 49.6355 18.3652 49.9944 17.6472C50.2774 17.0812 50.6569 16.4174 51.0321 15.8547L51.4437 15.2372L50.9719 14.6643C50.5203 14.1159 50.0747 13.5849 49.6358 13.0618C48.8405 12.1139 48.0671 11.1921 47.3191 10.2403C47.3261 10.2314 47.333 10.2225 47.3399 10.2137C47.9297 9.45634 48.4368 8.80523 49.0644 8.24741L49.1203 8.19768L49.1682 8.14018C49.6282 7.58826 50.1671 7.0524 50.7812 6.61373L50.8486 6.56563L50.9071 6.50711C51.01 6.40423 51.1308 6.29844 51.2683 6.18647C51.9434 6.74121 52.6054 7.28283 53.2665 7.82373L53.2668 7.82396C54.0919 8.4991 54.9157 9.17311 55.7643 9.87193L56.3372 10.3437L56.9547 9.93205C57.4868 9.57734 58.0273 9.30484 58.6939 9.01915L58.7209 9.00757L58.7472 8.99443C59.5701 8.58301 60.2689 8.23856 60.9425 8.07014L61.2113 8.00296L61.2446 7.96963C61.3374 7.94641 61.4174 7.92579 61.4878 7.90764C61.7782 7.83279 61.9054 7.8 62.1 7.8H63.0556L63.099 6.84541C63.1862 4.92603 63.3505 3.00877 63.5915 1.16243C63.8981 1.12515 64.2104 1.10344 64.5563 1.0794C64.8561 1.05857 65.181 1.03599 65.5493 1H67.0551C67.4525 1.03541 67.8095 1.0579 68.1427 1.07891C68.5562 1.10496 68.9332 1.12872 69.306 1.17201C69.5504 3.1015 69.7264 5.03581 69.9041 6.99054L69.9868 7.9H70.9C71.0085 7.9 71.1502 7.93749 71.4838 8.04868L71.5327 8.065L71.5831 8.07619C72.3438 8.24522 73.0362 8.58612 73.8528 8.99443C74.4534 9.29475 75.0307 9.5836 75.7039 9.96824L76.3224 10.3217L76.8585 9.85258C78.2718 8.61599 79.7629 7.38017 81.261 6.21566C82.8207 7.46157 84.1833 8.76886 85.3597 10.233C84.1169 11.7424 82.8811 13.2452 81.7239 14.6694L81.317 15.1701L81.6056 15.7472C81.7624 16.0608 81.9434 16.3969 82.1155 16.7165L82.1195 16.7241C82.292 17.0445 82.4557 17.3485 82.5954 17.6269C82.9499 18.4277 83.2236 19.234 83.5073 20.0842C83.5379 20.4795 83.6583 20.8387 83.7371 21.0737C83.742 21.0883 83.7468 21.1025 83.7513 21.1162L83.9581 21.7367L84.6095 21.7959C86.5409 21.9715 88.4703 22.1469 90.3317 22.3222C90.3711 22.6676 90.3936 23.0118 90.4176 23.3792C90.4393 23.711 90.4622 24.0618 90.5 24.4492V26.0508C90.4622 26.4382 90.4393 26.789 90.4176 27.1208C90.3936 27.4882 90.3711 27.8324 90.3317 28.1778C88.4703 28.3531 86.5409 28.5285 84.6095 28.7041L84.0547 28.7545L83.8056 29.2528C83.684 29.496 83.5719 29.8131 83.5242 30.2002C83.4978 30.2532 83.4783 30.3029 83.4638 30.3463C83.4198 30.4784 83.4083 30.5944 83.4041 30.6559C83.3217 30.9564 83.2034 31.2731 83.061 31.6236C83.014 31.7395 82.9623 31.8635 82.9088 31.9921C82.8005 32.2521 82.6844 32.5308 82.5826 32.7987C82.2867 33.3903 82.0119 33.9366 81.7425 34.3855L81.6 34.623V34.9V35V35.3757L81.8474 35.6585C83.0699 37.0556 84.2938 38.5313 85.5258 40.026C84.8868 40.8365 84.1938 41.592 83.4929 42.2929L83.4608 42.325L83.4318 42.3598C82.9759 42.9069 82.4264 43.4574 81.8793 43.9155C81.7561 44.0076 81.6432 44.0896 81.5364 44.1652C80.1316 43.0724 78.7333 41.9173 77.4 40.7581V39.2568L75.8188 40.3863C75.1698 40.8498 74.5322 41.2125 73.9061 41.4809L73.8791 41.4924L73.8528 41.5056C73.1165 41.8737 72.3936 42.1437 71.5831 42.3238L71.5327 42.335L71.4838 42.3513L71.0338 42.5013L70.5838 42.6513L69.9633 42.8581L69.9041 43.5095L69.9041 43.5101C69.7284 45.4426 69.5529 47.373 69.3774 49.2353C68.5841 49.3452 67.7917 49.4 67 49.4H65.5C64.8356 49.4 64.2161 49.3531 63.5892 49.2899C63.3708 47.5607 63.2072 45.836 63.0474 44.1511C63.0301 43.9687 63.0128 43.7867 62.9955 43.6052L62.9338 42.9572L62.3162 42.7513L62.3095 42.7491C62.0099 42.6492 61.6798 42.5392 61.2425 42.4299L61.2298 42.4267L61.2169 42.4238C60.4355 42.2502 59.5324 41.896 58.6603 41.5102C58.4081 41.3608 58.1389 41.2139 57.8885 41.0774L57.8789 41.0721C57.5999 40.9199 57.3437 40.78 57.1145 40.6425L56.877 40.5H56.6H56.5H56.1243L55.8415 40.7474ZM60.9729 8.00042C60.9729 8.0004 60.9746 8.0003 60.9784 8.00021L60.9729 8.00042ZM77.4002 41.2204C77.4002 41.2215 77.4001 41.22 77.4001 41.2153L77.4002 41.2204ZM73.6878 32.426L73.7074 32.4074L73.726 32.3877C75.6887 30.3159 76.7 27.9744 76.7 25.1C76.7 22.3353 75.695 19.8808 73.7071 17.8929C71.6393 15.8251 69.288 14.7982 66.4007 14.8993C63.624 14.7987 61.1647 15.816 59.1834 17.9024C57.2018 19.8886 56.2 22.3397 56.2 25.1C56.2 27.9744 57.2113 30.3159 59.1741 32.3877L59.1833 32.3976L59.1929 32.4071C61.1808 34.395 63.6353 35.4 66.4 35.4C69.2744 35.4 71.6159 34.3887 73.6878 32.426Z" stroke="#187BCD" stroke-width="2"/>
<path d="M66.5 18.2C65.2959 18.2 64.2321 18.4693 63.2516 19.0029C64.2339 18.4821 65.3192 18.2 66.5 18.2ZM66.5 18.2C67.6808 18.2 68.7662 18.4821 69.7485 19.003C68.768 18.4693 67.7041 18.2 66.5 18.2ZM59.6 25.1C59.6 23.8959 59.8693 22.8321 60.4029 21.8516C59.8821 22.834 59.6 23.9192 59.6 25.1ZM63.2858 31.2914C64.257 31.8231 65.3261 32.0974 66.4834 32.1C65.2976 32.0976 64.2508 31.8337 63.2858 31.2914ZM66.5166 32.1C67.674 32.0974 68.7431 31.8231 69.7143 31.2913C68.7494 31.8337 67.7025 32.0976 66.5166 32.1Z" fill="black" stroke="#187BCD" stroke-width="2"/>
<mask id="path-3-inside-1_88_10" fill="white">
<path d="M40.8 33.6C40.4 33.4 40.1 33.3 39.8 33.3C38.6 33 37.4 32.8 36.2 32.6C35.1 35.3 34.2 37.9 33.3 40.5H31.5C30.3 40.6 29.2 40.7 28.1 40.9C27.2 41 26.3 41.3 25.4 41.6C23.8 39.3 22.1 37 20.5 34.8L20.4 34.7C19.8 34.9 19.2 35.1 18.7 35.4C17.7 35.8 16.8 36.3 15.9 36.9C14.5 37.6 13.2 38.5 12 39.6V39.7C13.2 42.2 14.3 44.7 15.5 47.2C14.8 47.9 14.2 48.5 13.6 49.3C12.8 50.1 12.1 51.1 11.5 52.1C11.2 52.5 11 52.9 10.8 53.4C8 52.9 5.2 52.4 2.4 52C1.9 53.2 1.4 54.4 1 55.7C0.6 57.7 0.2 59.6 0 61.5L7.8 64.5V65.9C7.8 67 7.9 68.2 8.2 69.4C8.3 70.4 8.6 71.4 8.9 72.4C6.6 74 4.4 75.6 2.1 77.3C3.3 80.3 5 83.1 7 85.7H7.1C9.6 84.5 12.1 83.4 14.7 82.2C15.3 82.8 15.9 83.3 16.5 83.9C17.4 84.7 18.5 85.4 19.7 86.1C20 86.3 20.4 86.5 20.8 86.8C20.3 89.5 19.9 92.3 19.5 95.1C20.6 95.6 21.7 96 22.9 96.3C23.2 96.4 23.8 96.6 24.8 96.8C26.2 97.2 27.6 97.4 28.9 97.6C30 94.9 31 92.3 31.9 89.6H33.2C34.4 89.6 35.5 89.5 36.6 89.3C37.6 89.1 38.6 88.8 39.6 88.5C39.6 88.5 39.6 88.6 39.7 88.6C41.3 90.9 43 93.2 44.6 95.5C45.1 95.2 45.6 95 46 94.8C47 94.4 47.9 93.9 48.8 93.4C50.3 92.5 51.7 91.5 53 90.4C51.9 87.8 50.7 85.3 49.5 82.7C50.1 82.1 50.6 81.5 51.2 80.9C51.9 80 52.6 79 53.2 78.1C53.2 78 53.3 77.9 53.3 77.8C53.5 77.5 53.7 77.1 53.9 76.8C56.7 77.3 59.5 77.7 62.3 78.2C62.8 77 63.2 75.8 63.6 74.5C63.7 74.2 63.8 73.9 63.9 73.5C64 73.2 64 72.9 64.2 72.5C64.4 71.2 64.7 69.9 64.8 68.7C62.2 67.6 59.5 66.7 56.9 65.7V64.5C56.9 63.3 56.8 62 56.5 60.8C56.4 59.9 56.1 59 55.9 58.1C58.2 56.5 60.5 54.8 62.7 53.1H62.8C61.6 50.1 60 47.3 57.8 44.7C55.2 45.8 52.7 47 50.2 48.2C49.5 47.5 48.8 46.8 48.1 46.2C47.2 45.5 46.3 44.8 45.3 44.3C45 44 44.6 43.8 44.3 43.6C44.7 40.8 45.2 38 45.6 35.2C44.4 34.7 43.1 34.2 41.8 33.8C41.5 33.7 41.1 33.6 40.8 33.6ZM22.2 71C20.5 68.1 20.1 65.1 21 61.9C21.8 58.7 23.7 56.3 26.6 54.6C29.4 53 32.5 52.6 35.6 53.4C38.8 54.3 41.3 56.1 42.9 59C44.6 61.9 45 64.9 44.1 68.1C43.3 71.3 41.4 73.7 38.6 75.3C35.6 77 32.6 77.4 29.5 76.5C26.3 75.7 23.8 73.8 22.2 71Z"/>
</mask>
<path d="M40.8 33.6L39.9056 35.3888L40.3279 35.6H40.8V33.6ZM39.8 33.3L39.3149 35.2403L39.5538 35.3H39.8V33.3ZM36.2 32.6L36.5288 30.6272L34.9512 30.3643L34.3478 31.8454L36.2 32.6ZM33.3 40.5V42.5H34.7241L35.19 41.1542L33.3 40.5ZM31.5 40.5V38.5H31.4168L31.3339 38.5069L31.5 40.5ZM28.1 40.9L28.3209 42.8877L28.3897 42.8801L28.4578 42.8677L28.1 40.9ZM25.4 41.6L23.7582 42.7421L24.6128 43.9706L26.0325 43.4973L25.4 41.6ZM20.5 34.8L22.1175 33.6236L22.0252 33.4967L21.9142 33.3857L20.5 34.8ZM20.4 34.7L21.8142 33.2858L20.9402 32.4117L19.7675 32.8026L20.4 34.7ZM18.7 35.4L19.4428 37.2569L19.5916 37.1974L19.729 37.115L18.7 35.4ZM15.9 36.9L16.7944 38.6888L16.9058 38.6331L17.0094 38.5641L15.9 36.9ZM12 39.6L10.6486 38.1257L10 38.7202V39.6H12ZM12 39.7H10V40.1551L10.197 40.5654L12 39.7ZM15.5 47.2L16.9142 48.6142L17.9163 47.6121L17.303 46.3345L15.5 47.2ZM13.6 49.3L15.0142 50.7142L15.1147 50.6137L15.2 50.5L13.6 49.3ZM11.5 52.1L13.1 53.3L13.1619 53.2174L13.215 53.129L11.5 52.1ZM10.8 53.4L10.4484 55.3688L12.052 55.6552L12.657 54.1428L10.8 53.4ZM2.4 52L2.68284 50.0201L1.14956 49.801L0.553846 51.2307L2.4 52ZM1 55.7L-0.911558 55.1118L-0.941316 55.2085L-0.961161 55.3077L1 55.7ZM0 61.5L-1.98901 61.2906L-2.14958 62.816L-0.717958 63.3667L0 61.5ZM7.8 64.5H9.8V63.1264L8.51796 62.6333L7.8 64.5ZM8.2 69.4L10.1901 69.201L10.1756 69.0561L10.1403 68.9149L8.2 69.4ZM8.9 72.4L10.0421 74.0418L11.2322 73.2139L10.8157 71.8253L8.9 72.4ZM2.1 77.3L0.911218 75.6916L-0.330338 76.6093L0.243047 78.0428L2.1 77.3ZM7 85.7L5.41475 86.9194L6.0152 87.7H7V85.7ZM7.1 85.7V87.7H7.55514L7.96546 87.503L7.1 85.7ZM14.7 82.2L16.1142 80.7858L15.1281 79.7996L13.8619 80.3841L14.7 82.2ZM16.5 83.9L15.0858 85.3142L15.1273 85.3558L15.1713 85.3948L16.5 83.9ZM19.7 86.1L20.8094 84.4359L20.7595 84.4026L20.7077 84.3724L19.7 86.1ZM20.8 86.8L22.7666 87.1642L22.9925 85.9443L22 85.2L20.8 86.8ZM19.5 95.1L17.5201 94.8171L17.3082 96.3006L18.6724 96.9207L19.5 95.1ZM22.9 96.3L23.5325 94.4026L23.4596 94.3783L23.3851 94.3597L22.9 96.3ZM24.8 96.8L25.3494 94.8769L25.2716 94.8547L25.1922 94.8388L24.8 96.8ZM28.9 97.6L28.5959 99.5767L30.1565 99.8168L30.7522 98.3546L28.9 97.6ZM31.9 89.6V87.6H30.4585L30.0026 88.9675L31.9 89.6ZM36.6 89.3L36.9578 91.2677L36.975 91.2646L36.9922 91.2611L36.6 89.3ZM39.6 88.5L41.6 88.4999L41.5999 85.8119L39.0253 86.5843L39.6 88.5ZM39.7 88.6L41.3418 87.4578L40.745 86.6H39.7V88.6ZM44.6 95.5L42.9582 96.6421L44.0258 98.1769L45.629 97.215L44.6 95.5ZM46 94.8L45.2572 92.943L45.18 92.9739L45.1056 93.0111L46 94.8ZM48.8 93.4L49.7713 95.1483L49.8004 95.1321L49.829 95.115L48.8 93.4ZM53 90.4L54.2919 91.9268L55.4154 90.9761L54.8419 89.6207L53 90.4ZM49.5 82.7L48.0858 81.2858L47.0997 82.2719L47.6841 83.5381L49.5 82.7ZM51.2 80.9L52.6142 82.3142L52.7023 82.2261L52.7787 82.1279L51.2 80.9ZM53.2 78.1L54.8641 79.2094L55.2 78.7055V78.1H53.2ZM53.3 77.8L51.6359 76.6906L51.3 77.1944V77.8H53.3ZM53.9 76.8L54.2516 74.8311L52.9624 74.6009L52.2359 75.6906L53.9 76.8ZM62.3 78.2L61.9484 80.1688L63.5287 80.451L64.1462 78.9692L62.3 78.2ZM63.6 74.5L61.7026 73.8675L61.6953 73.8896L61.6884 73.9118L63.6 74.5ZM63.9 73.5L62.0026 72.8675L61.9783 72.9404L61.9597 73.0149L63.9 73.5ZM64.2 72.5L65.9889 73.3944L66.1291 73.114L66.1767 72.8041L64.2 72.5ZM64.8 68.7L66.7931 68.8661L66.9134 67.4225L65.5793 66.858L64.8 68.7ZM56.9 65.7H54.9V67.0736L56.182 67.5667L56.9 65.7ZM56.5 60.8L54.5122 61.0208L54.5271 61.1545L54.5597 61.285L56.5 60.8ZM55.9 58.1L54.7579 56.4582L53.6566 57.2243L53.9476 58.5338L55.9 58.1ZM62.7 53.1V51.1H62.0173L61.4771 51.5174L62.7 53.1ZM62.8 53.1V55.1H65.7541L64.657 52.3572L62.8 53.1ZM57.8 44.7L59.3268 43.4081L58.3761 42.2846L57.0207 42.858L57.8 44.7ZM50.2 48.2L48.7858 49.6142L49.7879 50.6163L51.0655 50.003L50.2 48.2ZM48.1 46.2L49.4016 44.6815L49.3654 44.6505L49.3279 44.6213L48.1 46.2ZM45.3 44.3L43.8858 45.7142L44.1153 45.9437L44.4056 46.0888L45.3 44.3ZM44.3 43.6L42.3201 43.3171L42.1418 44.5649L43.1906 45.2641L44.3 43.6ZM45.6 35.2L47.5799 35.4828L47.7989 33.9495L46.3692 33.3538L45.6 35.2ZM41.8 33.8L41.1675 35.6973L41.1896 35.7047L41.2118 35.7115L41.8 33.8ZM22.2 71L23.9365 70.0077L23.931 69.9981L23.9254 69.9885L22.2 71ZM21 61.9L22.9253 62.4415L22.9332 62.4134L22.9403 62.385L21 61.9ZM26.6 54.6L25.6077 52.8635L25.5981 52.869L25.5886 52.8746L26.6 54.6ZM35.6 53.4L36.1415 51.4747L36.1207 51.4688L36.0998 51.4634L35.6 53.4ZM42.9 59L41.1488 59.9661L41.1614 59.9889L41.1746 60.0114L42.9 59ZM44.1 68.1L42.1747 67.5585L42.1668 67.5866L42.1597 67.6149L44.1 68.1ZM38.6 75.3L39.586 77.04L39.5923 77.0365L38.6 75.3ZM29.5 76.5L30.0576 74.5793L30.0215 74.5688L29.9851 74.5597L29.5 76.5ZM41.6944 31.8111C41.2031 31.5654 40.5672 31.3 39.8 31.3V35.3C39.7623 35.3 39.7295 35.2967 39.7043 35.2926C39.6801 35.2886 39.669 35.2849 39.6743 35.2865C39.6804 35.2884 39.7014 35.2953 39.7411 35.312C39.781 35.3288 39.8344 35.3532 39.9056 35.3888L41.6944 31.8111ZM40.2851 31.3597C38.995 31.0372 37.7166 30.8252 36.5288 30.6272L35.8712 34.5728C37.0834 34.7748 38.205 34.9628 39.3149 35.2403L40.2851 31.3597ZM34.3478 31.8454C33.2245 34.6026 32.3079 37.252 31.41 39.8458L35.19 41.1542C36.0921 38.548 36.9755 35.9974 38.0522 33.3546L34.3478 31.8454ZM33.3 38.5H31.5V42.5H33.3V38.5ZM31.3339 38.5069C30.137 38.6066 28.9486 38.7129 27.7422 38.9322L28.4578 42.8677C29.4514 42.6871 30.463 42.5933 31.6661 42.4931L31.3339 38.5069ZM27.8791 38.9122C26.731 39.0398 25.626 39.4165 24.7675 39.7026L26.0325 43.4973C26.974 43.1835 27.669 42.9602 28.3209 42.8877L27.8791 38.9122ZM27.0418 40.4578C25.4259 38.135 23.705 35.8065 22.1175 33.6236L18.8825 35.9763C20.495 38.1935 22.1741 40.4649 23.7582 42.7421L27.0418 40.4578ZM21.9142 33.3857L21.8142 33.2858L18.9858 36.1142L19.0858 36.2142L21.9142 33.3857ZM19.7675 32.8026C19.216 32.9865 18.3944 33.251 17.671 33.685L19.729 37.115C20.0056 36.949 20.384 36.8135 21.0325 36.5973L19.7675 32.8026ZM17.9572 33.543C16.8021 34.0051 15.7792 34.5768 14.7906 35.2359L17.0094 38.5641C17.8208 38.0232 18.5979 37.5949 19.4428 37.2569L17.9572 33.543ZM15.0056 35.1111C13.4328 35.8975 11.98 36.9051 10.6486 38.1257L13.3514 41.0743C14.42 40.0948 15.5672 39.3025 16.7944 38.6888L15.0056 35.1111ZM10 39.6V39.7H14V39.6H10ZM10.197 40.5654C10.7887 41.7982 11.3569 43.0334 11.933 44.2858C12.5069 45.5334 13.0887 46.7982 13.697 48.0654L17.303 46.3345C16.7113 45.1017 16.1431 43.8666 15.567 42.6142C14.9931 41.3666 14.4113 40.1017 13.803 38.8345L10.197 40.5654ZM14.0858 45.7858C13.3944 46.4772 12.697 47.1707 12 48.1L15.2 50.5C15.703 49.8293 16.2056 49.3228 16.9142 48.6142L14.0858 45.7858ZM12.1858 47.8858C11.2232 48.8484 10.4262 50.0023 9.78501 51.071L13.215 53.129C13.7738 52.1977 14.3768 51.3516 15.0142 50.7142L12.1858 47.8858ZM9.9 50.9C9.45798 51.4893 9.1808 52.0628 8.94305 52.6572L12.657 54.1428C12.8192 53.7371 12.942 53.5106 13.1 53.3L9.9 50.9ZM11.1516 51.4311C8.35744 50.9322 5.5231 50.4258 2.68284 50.0201L2.11716 53.9799C4.8769 54.3741 7.64256 54.8678 10.4484 55.3688L11.1516 51.4311ZM0.553846 51.2307C0.0587992 52.4189 -0.478822 53.7054 -0.911558 55.1118L2.91156 56.2881C3.27882 55.0945 3.7412 53.9811 4.24615 52.7692L0.553846 51.2307ZM-0.961161 55.3077C-1.35356 57.2698 -1.77702 59.2767 -1.98901 61.2906L1.98901 61.7093C2.17702 59.9233 2.55356 58.1302 2.96116 56.0922L-0.961161 55.3077ZM-0.717958 63.3667L7.08204 66.3667L8.51796 62.6333L0.717958 59.6333L-0.717958 63.3667ZM5.8 64.5V65.9H9.8V64.5H5.8ZM5.8 65.9C5.8 67.1162 5.91002 68.4863 6.25971 69.885L10.1403 68.9149C9.88998 67.9137 9.8 66.8838 9.8 65.9H5.8ZM6.20993 69.599C6.33244 70.8242 6.69537 72.0114 6.98435 72.9747L10.8157 71.8253C10.5046 70.7885 10.2676 69.9758 10.1901 69.201L6.20993 69.599ZM7.75787 70.7582C5.43572 72.3736 3.21864 73.9861 0.911218 75.6916L3.28878 78.9083C5.58136 77.2138 7.76428 75.6264 10.0421 74.0418L7.75787 70.7582ZM0.243047 78.0428C1.52494 81.2475 3.32759 84.2061 5.41475 86.9194L8.58525 84.4806C6.67241 81.9939 5.07506 79.3525 3.95695 76.5572L0.243047 78.0428ZM7 87.7H7.1V83.7H7V87.7ZM7.96546 87.503C10.4513 86.3098 12.8914 85.2375 15.5381 84.0159L13.8619 80.3841C11.3086 81.5625 8.74867 82.6901 6.23454 83.8969L7.96546 87.503ZM13.2858 83.6142C13.6213 83.9497 13.9529 84.2533 14.2485 84.5243C14.5529 84.8033 14.8213 85.0497 15.0858 85.3142L17.9142 82.4858C17.5787 82.1502 17.2471 81.8467 16.9515 81.5757C16.6471 81.2967 16.3787 81.0502 16.1142 80.7858L13.2858 83.6142ZM15.1713 85.3948C16.2268 86.333 17.47 87.1145 18.6923 87.8275L20.7077 84.3724C19.53 83.6854 18.5732 83.0669 17.8287 82.4052L15.1713 85.3948ZM18.5906 87.7641C18.7934 87.8993 19.0504 88.0476 19.1835 88.1275C19.3515 88.2282 19.4824 88.3118 19.6 88.4L22 85.2C21.7176 84.9882 21.4485 84.8217 21.2415 84.6975C20.9996 84.5523 20.9066 84.5007 20.8094 84.4359L18.5906 87.7641ZM18.8334 86.4358C18.3246 89.1834 17.919 92.0248 17.5201 94.8171L21.4799 95.3828C21.881 92.5751 22.2754 89.8166 22.7666 87.1642L18.8334 86.4358ZM18.6724 96.9207C19.8681 97.4642 21.0827 97.9072 22.4149 98.2403L23.3851 94.3597C22.3173 94.0927 21.3319 93.7357 20.3276 93.2792L18.6724 96.9207ZM22.2675 98.1973C22.6085 98.311 23.295 98.5386 24.4078 98.7611L25.1922 94.8388C24.305 94.6614 23.7915 94.489 23.5325 94.4026L22.2675 98.1973ZM24.2506 98.723C25.7967 99.1648 27.3338 99.3825 28.5959 99.5767L29.2041 95.6232C27.8662 95.4174 26.6033 95.2352 25.3494 94.8769L24.2506 98.723ZM30.7522 98.3546C31.8613 95.6321 32.8787 92.9885 33.7974 90.2324L30.0026 88.9675C29.1213 91.6115 28.1387 94.1679 27.0478 96.8454L30.7522 98.3546ZM31.9 91.6H33.2V87.6H31.9V91.6ZM33.2 91.6C34.5166 91.6 35.7364 91.4898 36.9578 91.2677L36.2422 87.3322C35.2636 87.5102 34.2834 87.6 33.2 87.6V91.6ZM36.9922 91.2611C38.1005 91.0395 39.1914 90.7106 40.1747 90.4156L39.0253 86.5843C38.0086 86.8893 37.0995 87.1605 36.2078 87.3388L36.9922 91.2611ZM39.6 88.5C37.6 88.5 37.6 88.501 37.6 88.502C37.6 88.5023 37.6 88.5033 37.6 88.5039C37.6 88.5053 37.6 88.5066 37.6 88.5079C37.6 88.5106 37.6 88.5133 37.6001 88.516C37.6001 88.5214 37.6002 88.5269 37.6003 88.5326C37.6004 88.5438 37.6007 88.5556 37.6011 88.5678C37.6019 88.5921 37.6033 88.6185 37.6053 88.6468C37.6093 88.7027 37.6163 88.7695 37.6288 88.8444C37.6522 88.9848 37.7027 89.2025 37.8237 89.4444C37.9486 89.6942 38.1673 90.0048 38.5328 90.2485C38.9109 90.5005 39.325 90.6 39.7 90.6V86.6C40.025 86.6 40.4016 86.687 40.7516 86.9202C41.089 87.1452 41.2889 87.4307 41.4013 87.6555C41.5098 87.8724 41.5541 88.0651 41.5743 88.1868C41.5853 88.2523 41.5915 88.3113 41.5951 88.3617C41.5969 88.3873 41.5981 88.4116 41.5989 88.4344C41.5993 88.4459 41.5996 88.4571 41.5997 88.468C41.5998 88.4734 41.5999 88.4788 41.5999 88.4841C41.6 88.4868 41.6 88.4894 41.6 88.4921C41.6 88.4934 41.6 88.4947 41.6 88.496C41.6 88.4967 41.6 88.4976 41.6 88.498C41.6 88.499 41.6 88.4999 39.6 88.5ZM38.0582 89.7421C38.8679 90.906 39.7014 92.0678 40.5249 93.2158C41.3514 94.3678 42.1679 95.506 42.9582 96.6421L46.2418 94.3578C45.4321 93.1939 44.5986 92.0321 43.7751 90.8842C42.9486 89.7321 42.1321 88.5939 41.3418 87.4578L38.0582 89.7421ZM45.629 97.215C46.0547 96.9596 46.2873 96.8924 46.8944 96.5888L45.1056 93.0111C44.9127 93.1076 44.1453 93.4404 43.571 93.785L45.629 97.215ZM46.7428 96.6569C47.8787 96.2025 48.8862 95.64 49.7713 95.1483L47.8287 91.6517C46.9138 92.1599 46.1213 92.5974 45.2572 92.943L46.7428 96.6569ZM49.829 95.115C51.419 94.1609 52.9073 93.0984 54.2919 91.9268L51.7081 88.8732C50.4927 89.9016 49.181 90.839 47.771 91.685L49.829 95.115ZM54.8419 89.6207C53.7252 86.9812 52.4993 84.4259 51.3159 81.8619L47.6841 83.5381C48.9007 86.1741 50.0748 88.6187 51.1581 91.1793L54.8419 89.6207ZM50.9142 84.1142C51.2497 83.7787 51.5533 83.4471 51.8243 83.1514C52.1033 82.8471 52.3497 82.5787 52.6142 82.3142L49.7858 79.4858C49.4503 79.8213 49.1467 80.1529 48.8757 80.4485C48.5967 80.7529 48.3503 81.0213 48.0858 81.2858L50.9142 84.1142ZM52.7787 82.1279C53.5187 81.1765 54.248 80.1335 54.8641 79.2094L51.5359 76.9906C50.952 77.8665 50.2813 78.8235 49.6213 79.6721L52.7787 82.1279ZM55.2 78.1C55.2 78.4026 55.1255 78.628 55.0883 78.7272C55.0681 78.7809 55.0502 78.82 55.0426 78.8363C55.0358 78.8507 55.0306 78.8609 55.0389 78.8444C55.0431 78.8359 55.0608 78.8007 55.0793 78.7614C55.0987 78.72 55.1275 78.6559 55.157 78.5772C55.213 78.428 55.3 78.1526 55.3 77.8H51.3C51.3 77.4974 51.3745 77.272 51.4117 77.1727C51.4319 77.119 51.4498 77.0799 51.4574 77.0636C51.4642 77.0493 51.4694 77.0391 51.4611 77.0555C51.4569 77.0641 51.4392 77.0993 51.4207 77.1386C51.4013 77.1799 51.3725 77.244 51.343 77.3227C51.287 77.472 51.2 77.7474 51.2 78.1H55.2ZM54.9641 78.9094C55.1097 78.691 55.245 78.4523 55.3365 78.2923C55.445 78.1023 55.5097 77.991 55.5641 77.9094L52.2359 75.6906C52.0903 75.9089 51.955 76.1476 51.8635 76.3077C51.755 76.4976 51.6903 76.6089 51.6359 76.6906L54.9641 78.9094ZM53.5484 78.7688C54.9683 79.0224 56.3855 79.2501 57.7826 79.4746C59.1855 79.7001 60.5683 79.9224 61.9484 80.1688L62.6516 76.2311C61.2317 75.9776 59.8145 75.7499 58.4174 75.5253C57.0145 75.2999 55.6317 75.0776 54.2516 74.8311L53.5484 78.7688ZM64.1462 78.9692C64.6822 77.6828 65.104 76.4128 65.5116 75.0881L61.6884 73.9118C61.296 75.1871 60.9178 76.3172 60.4538 77.4307L64.1462 78.9692ZM65.4974 75.1324C65.5983 74.8298 65.72 74.4662 65.8403 73.985L61.9597 73.0149C61.88 73.3338 61.8017 73.5702 61.7026 73.8675L65.4974 75.1324ZM65.7974 74.1324C65.8532 73.965 65.889 73.8157 65.9124 73.7115C65.9238 73.6608 65.9346 73.6095 65.9419 73.5756C65.9501 73.5372 65.9558 73.5109 65.9613 73.4872C65.9788 73.4112 65.985 73.4022 65.9889 73.3944L62.4111 71.6055C62.215 71.9978 62.1212 72.3387 62.0637 72.5878C62.0504 72.6453 62.039 72.6987 62.0304 72.7388C62.0208 72.7834 62.0153 72.8095 62.0095 72.8353C61.9985 72.8843 61.9968 72.885 62.0026 72.8675L65.7974 74.1324ZM66.1767 72.8041C66.342 71.7302 66.6869 70.1399 66.7931 68.8661L62.8069 68.5339C62.7131 69.66 62.458 70.6698 62.2233 72.1959L66.1767 72.8041ZM65.5793 66.858C62.9546 65.7476 60.0879 64.7833 57.618 63.8333L56.182 67.5667C58.9121 68.6167 61.4455 69.4524 64.0207 70.5419L65.5793 66.858ZM58.9 65.7V64.5H54.9V65.7H58.9ZM58.9 64.5C58.9 63.2034 58.7934 61.7275 58.4403 60.3149L54.5597 61.285C54.8066 62.2724 54.9 63.3965 54.9 64.5H58.9ZM58.4878 60.5791C58.4227 59.9932 58.2964 59.4392 58.1778 58.9649C58.0473 58.4429 57.9457 58.0861 57.8524 57.6661L53.9476 58.5338C54.0543 59.0139 54.2027 59.557 54.2972 59.935C54.4037 60.3608 54.4773 60.7068 54.5122 61.0208L58.4878 60.5791ZM57.0421 59.7418C59.3734 58.1201 61.7004 56.3999 63.9229 54.6825L61.4771 51.5174C59.2996 53.2 57.0266 54.8799 54.7579 56.4582L57.0421 59.7418ZM62.7 55.1H62.8V51.1H62.7V55.1ZM64.657 52.3572C63.3863 49.1805 61.6807 46.19 59.3268 43.4081L56.2732 45.9919C58.3193 48.41 59.8137 51.0195 60.943 53.8428L64.657 52.3572ZM57.0207 42.858C54.3701 43.9795 51.828 45.2001 49.3345 46.3969L51.0655 50.003C53.572 48.7999 56.0299 47.6205 58.5793 46.5419L57.0207 42.858ZM51.6142 46.7858C50.9262 46.0977 50.1706 45.3406 49.4016 44.6815L46.7984 47.7185C47.4294 48.2593 48.0738 48.9022 48.7858 49.6142L51.6142 46.7858ZM49.3279 44.6213C48.4569 43.9439 47.402 43.1149 46.1944 42.5111L44.4056 46.0888C45.198 46.485 45.943 47.0561 46.8721 47.7787L49.3279 44.6213ZM46.7142 42.8858C46.4157 42.5872 46.1025 42.3722 45.8815 42.2301C45.7703 42.1586 45.6599 42.0917 45.5835 42.045C45.4971 41.9922 45.4473 41.9612 45.4094 41.9359L43.1906 45.2641C43.3027 45.3388 43.4154 45.4078 43.4977 45.4581C43.5901 45.5145 43.6547 45.5538 43.7185 45.5948C43.7792 45.6338 43.8205 45.6627 43.85 45.6851C43.8791 45.7072 43.8884 45.7168 43.8858 45.7142L46.7142 42.8858ZM46.2799 43.8828C46.477 42.503 46.6992 41.1202 46.9247 39.7173C47.1492 38.3202 47.377 36.903 47.5799 35.4828L43.6201 34.9171C43.423 36.297 43.2008 37.6797 42.9753 39.0826C42.7508 40.4797 42.523 41.897 42.3201 43.3171L46.2799 43.8828ZM46.3692 33.3538C45.1371 32.8404 43.7724 32.3143 42.3882 31.8884L41.2118 35.7115C42.4276 36.0856 43.6629 36.5595 44.8308 37.0461L46.3692 33.3538ZM42.4325 31.9026C42.0771 31.7842 41.4296 31.6 40.8 31.6V35.6C40.7684 35.6 40.7612 35.5977 40.7835 35.6006C40.8037 35.6032 40.8364 35.6085 40.8809 35.6181C40.9725 35.6377 41.0756 35.6667 41.1675 35.6973L42.4325 31.9026ZM23.9254 69.9885C22.4952 67.5489 22.1752 65.1086 22.9253 62.4415L19.0747 61.3585C18.0248 65.0914 18.5048 68.6511 20.4746 72.0114L23.9254 69.9885ZM22.9403 62.385C23.5993 59.7489 25.136 57.7765 27.6114 56.3254L25.5886 52.8746C22.264 54.8235 20.0007 57.651 19.0597 61.4149L22.9403 62.385ZM27.5923 56.3365C29.9354 54.9975 32.4996 54.6654 35.1002 55.3365L36.0998 51.4634C32.5004 50.5346 28.8646 51.0024 25.6077 52.8635L27.5923 56.3365ZM35.0585 55.3253C37.8108 56.0994 39.8395 57.593 41.1488 59.9661L44.6512 58.0338C42.7605 54.607 39.7892 52.5006 36.1415 51.4747L35.0585 55.3253ZM41.1746 60.0114C42.6048 62.4511 42.9248 64.8914 42.1747 67.5585L46.0253 68.6415C47.0752 64.9086 46.5952 61.3489 44.6254 57.9885L41.1746 60.0114ZM42.1597 67.6149C41.4978 70.2626 39.9557 72.2218 37.6077 73.5635L39.5923 77.0365C42.8443 75.1782 45.1022 72.3373 46.0403 68.585L42.1597 67.6149ZM37.614 73.5599C35.0448 75.0158 32.5989 75.3171 30.0576 74.5793L28.9424 78.4207C32.6011 79.4829 36.1552 78.9841 39.586 77.04L37.614 73.5599ZM29.9851 74.5597C27.3096 73.8908 25.2638 72.3304 23.9365 70.0077L20.4635 71.9923C22.3362 75.2695 25.2904 77.5091 29.0149 78.4403L29.9851 74.5597Z" fill="#187BCD" mask="url(#path-3-inside-1_88_10)"/>
<path d="M23.7588 62.6841L23.7649 62.6634L23.7702 62.6425C24.4093 60.0858 25.75 58.2261 27.9886 56.9725L27.9963 56.9682L28.0039 56.9638C30.1815 55.6935 32.5977 55.3423 35.0159 56.0588L35.0324 56.0637L35.049 56.068C37.4854 56.6996 39.3608 58.1266 40.6275 60.3886L40.6318 60.3963L40.6362 60.4039C41.9087 62.5852 42.2631 64.9148 41.632 67.349L41.6 67.4725V67.5521C40.862 69.9432 39.5288 71.6929 37.2984 73.0348C35.0376 74.2968 32.7128 74.5663 30.2676 73.9363C27.7903 73.1987 25.9254 71.8486 24.6725 69.6114L24.3861 69.1H24.2932C23.2703 67.0858 23.0907 64.939 23.7588 62.6841ZM28.299 57.5346L28.2887 57.5405L28.2786 57.5467C26.2805 58.7678 24.917 60.4634 24.2422 62.7126L24.2339 62.7403L24.2272 62.7684C23.6676 65.1186 24.0082 67.2738 25.1259 69.2856L25.1302 69.2934L25.1346 69.301C26.3533 71.4061 28.0618 72.7921 30.4404 73.3661C32.7243 74.0431 34.8856 73.6797 36.9658 72.5849L37.5 72.3037V72.1647C39.2647 71.0176 40.4483 69.3191 41.0578 67.2873L41.0645 67.2651L41.0702 67.2425C41.6255 65.0212 41.4115 62.7439 40.1595 60.6888C38.9322 58.5744 37.1213 57.2056 34.8651 56.6355C32.5749 55.955 30.3983 56.3192 28.299 57.5346Z" fill="black" stroke="#187BCD" stroke-width="2"/>
</g>
<defs>
<clipPath id="clip0_88_10">
<rect width="91.5" height="97.6" fill="white"/>
</clipPath>
</defs>
</svg>
