<svg width="512" height="512" viewBox="0 0 512 512" fill="none" xmlns="http://www.w3.org/2000/svg">
<path d="M287 120.9C276.6 119.9 266.1 118.3 255.7 118.1C228.5 117.4 201.9 122.6 175.1 126.7C165.5 128.2 160.9 132.4 156.6 140.7C141.8 169.1 125.7 196.8 110.1 224.7C109.1 226.6 107.8 229 108.1 230.9C109.6 239.7 111.7 248.3 113.7 257.8C116.3 255.8 118.3 254.3 120.3 252.9C131.5 244.6 145.4 246.3 152.4 256.9C157.5 264.5 156.9 273.1 150.7 279.8C137.8 293.8 124.8 307.8 111.7 321.7C105.4 328.4 94.7 329.6 86.5 324.8C78.8 320.3 75.2 311.4 78 302.3C79.2 298.4 81.2 294.6 83.7 291.3C88.3 285.2 93.6 279.6 98.4 273.6C99.6 272.1 100.5 269.5 100.2 267.7C99 261.1 97.3 254.6 95.6 248.1C95.3 246.9 94.1 245.4 92.9 244.9C88.4 243.1 83.4 242.1 79.2 239.8C70.2 234.9 61.6 229.3 52.8 224C50.3 222.5 47.8 221.2 45.1 220.1C38.3 217.3 36.5 214.3 39.2 207.5C42.3 199.8 45.8 192.2 49.5 184.8C64.4 154.8 80.9 125.7 99.5 97.8C102.6 93.2 106.2 88.8 110.1 84.7C116.3 78.1 121.5 77.4 128.7 83C138.4 90.5 147.8 98.6 156.8 107C161.2 111.1 164.9 113 171.5 111.7C197.7 106.4 224.2 102.1 251 102C273.5 101.9 295.8 104.3 315.6 117C320.5 120.2 325.5 118.1 329 113.6C339.9 99.6 350.9 85.6 362.4 72C367 66.5 371 66.7 376.5 71.4C408.1 98.6 439.6 125.8 471.1 153C475.5 156.8 475.7 160.9 471.5 165.5C463.3 174.5 455 183.5 446.6 192.3C442.6 196.5 439.3 200.3 438.3 206.7C436 222.1 431.6 237 421.2 249.8C424.2 252.2 426.5 254.7 429.3 256.4C440.7 263.5 442.4 274.1 439.6 285.8C435.7 302.2 425.3 312.7 409 317C406 317.8 405 319.1 404.5 322.4C401.8 340.8 394.4 356.3 376.4 364.7C374.8 365.4 373.7 368.3 373.5 370.3C372.7 380.2 370.5 389.6 363.9 397.5C358.2 404.3 350.8 408.5 341.9 408.9C337.6 409.1 336.3 410.9 335.3 414.6C330.9 431.2 312.6 445.4 295.5 444.6C289.9 444.3 283.7 442 279.1 438.8C261 426.1 243.5 412.7 225.7 399.5C225.3 399.2 224.9 399 224 398.5C220.5 402.3 217.1 406.3 213.4 410C203 420.5 186.5 417.7 180.1 404.4C177.1 398.2 177.2 392.2 182.2 386.6C194.6 372.5 207.1 358.5 218.8 343.9C226.3 334.6 239.1 335.7 245.5 340.6C253.7 346.8 256.3 359.1 250.4 367.7C247 372.7 242.5 376.9 238.5 381.5C237.3 382.9 236 384.3 234.4 386.1C239.6 390.2 244.3 394.2 249.3 397.9C262.4 407.4 275.6 416.7 288.8 426.2C293 429.2 297.3 429.6 302 427.7C310.8 424.3 318.2 419.4 321.1 409.6C321.9 406.7 321.5 404.6 319.3 402.8C302.5 389.2 285.7 375.7 268.8 362.2C265.2 359.4 261.5 356.9 261.9 351.5C262.3 346.9 265.3 344.1 269.7 345.4C273.6 346.5 277.6 348.3 280.8 350.8C295.1 362.2 309.1 373.9 323.2 385.5C324.6 386.6 325.8 387.8 327.2 388.9C338 397.5 352.6 392.6 356.2 379.2C356.5 378 356.8 376.7 357 375.5C358.7 367.8 357.6 361.7 350.4 356.4C334.5 344.7 319.3 332.2 304 319.8C301.8 318 299.3 315.8 298.6 313.3C297.9 310.8 298.3 306.8 300 305.1C301.6 303.5 305.4 303.5 308.2 303.6C309.9 303.7 311.5 305.4 313 306.6C329 319.4 345 332.3 361 345.1C369.2 351.7 372.6 351.4 379.3 343.2C384.9 336.4 389 328.8 389.1 319.8C389.1 317.4 387.8 314.4 386 312.8C372 300.8 357.8 289.1 343.8 277.1C341 274.8 338.5 272 336.5 269C334.5 266.1 335 262.3 337.9 260.4C340.1 259 343.8 258.2 346.2 259.1C349.7 260.4 352.7 263.1 355.6 265.6C368.4 276.5 381.2 287.5 393.7 298.7C398.3 302.8 402.9 304 408 300.8C412.3 298.1 416.9 295.4 420 291.6C427.5 282.6 426.3 274.2 417.6 266.6C382.4 235.7 347.3 204.8 312 174.2C309.9 172.4 306.2 171.3 303.4 171.7C288 173.7 272.6 175.9 257.4 178.6C252.5 179.5 247.8 182 243 183.9C228.7 189.7 215.6 187.1 203.6 178.3C195.5 172.4 194.6 164.5 201.8 157.4C208.5 150.8 216.7 145.7 223.5 139.2C232.6 130.5 243.5 127.3 255.7 126.4C266.2 125.6 276.6 123.7 287.1 122.3C287 122 287 121.5 287 120.9ZM121.2 95.7C94.6 131.2 75.1 169.3 56 207.8C67.9 214.7 79 221.2 90.5 227.9C108.3 195.5 125.8 163.7 143.2 131.9C145 128.6 148.7 124.8 148.1 121.9C147.5 118.7 143 116.2 140.1 113.5C134.3 107.8 128.2 102.2 121.2 95.7ZM455.2 159.8C451.8 157 448.8 154.6 446 152.1C433.6 141 421.4 129.7 408.7 118.8C397.2 108.9 385.2 99.4 373.4 89.9C372.3 89 369.4 88.6 368.8 89.2C360.8 98.5 353 108 344.9 117.7C373.2 141.1 401.2 164.3 429.5 187.7C438.2 178.4 446.6 169.3 455.2 159.8Z" fill="#187BCD"/>
<path d="M202.5 309.5C213 309.5 221.6 317.1 221.8 327.3C221.9 330.6 220.6 334.7 218.5 337.3C203.7 355 188.6 372.4 173.6 389.9C165 399.9 154.4 401.6 145.4 394.6C135.9 387.1 134.3 374.4 142.5 364.4C153 351.7 164.2 339.6 175.1 327.2C178.1 323.8 181 320.4 184.1 317.2C189.8 311.4 194.5 309.5 202.5 309.5Z" fill="#187BCD"/>
<path d="M127.7 367.5C111.4 366.4 101.8 349.9 110 335.4C114.7 327 121.3 319.5 127.7 312.2C135.9 302.8 144.6 293.8 153.2 284.7C158.9 278.7 169.9 277 177.2 280.9C184.7 284.9 189.2 294.7 186.9 303C186.3 305.1 185.1 307.1 183.6 308.8C167.7 327 151.8 345.2 135.7 363.2C133.7 365.3 130.4 366.1 127.7 367.5Z" fill="#187BCD"/>
</svg>
